<svg width="20" height="20" viewBox="0 0 20 20" fill="none" xmlns="http://www.w3.org/2000/svg">
<g clip-path="url(#clip0_18_569)">
<path d="M12.9065 11.1435H3.79833C3.58486 11.1435 3.404 11.0694 3.25575 10.9211C3.10751 10.7729 3.03339 10.592 3.03339 10.3785C3.03339 10.1769 3.10751 10.002 3.25575 9.85375C3.404 9.70551 3.58486 9.63138 3.79833 9.63138H12.9065C13.12 9.63138 13.3008 9.70551 13.4491 9.85375C13.5973 10.002 13.6714 10.1769 13.6714 10.3785C13.6714 10.592 13.5973 10.7729 13.4491 10.9211C13.3008 11.0694 13.12 11.1435 12.9065 11.1435ZM15.9485 6.5894C15.9485 6.37593 15.8743 6.19507 15.7261 6.04683C15.5779 5.89858 15.397 5.82446 15.1835 5.82446H1.52129C1.30782 5.82446 1.12696 5.89858 0.978715 6.04683C0.83047 6.19507 0.756348 6.37593 0.756348 6.5894C0.756348 6.80287 0.83047 6.98373 0.978715 7.13198C1.12696 7.28022 1.30782 7.35434 1.52129 7.35434H15.1835C15.397 7.35434 15.5779 7.28022 15.7261 7.13198C15.8743 6.98373 15.9485 6.80287 15.9485 6.5894ZM10.6294 14.1855C10.6294 13.972 10.5553 13.7911 10.4071 13.6429C10.2588 13.4946 10.078 13.4205 9.86451 13.4205H6.84031C6.62684 13.4205 6.44598 13.4946 6.29774 13.6429C6.14949 13.7911 6.07537 13.972 6.07537 14.1855C6.07537 14.3871 6.14949 14.562 6.29774 14.7103C6.44598 14.8585 6.62684 14.9326 6.84031 14.9326H9.86451C10.078 14.9326 10.2588 14.8585 10.4071 14.7103C10.5553 14.562 10.6294 14.3871 10.6294 14.1855Z" fill="#526484"/>
</g>
<defs>
<clipPath id="clip0_18_569">
<rect width="18.47" height="18.67" fill="white" transform="matrix(1 0 0 -1 0.756348 19.3398)"/>
</clipPath>
</defs>
</svg>
