<svg width="19" height="20" viewBox="0 0 19 20" fill="none" xmlns="http://www.w3.org/2000/svg">
<g clip-path="url(#clip0_15_1014)">
<path d="M8.05631 12.1592C7.53449 12.1592 7.08679 11.9754 6.71321 11.6077C6.33963 11.2401 6.15285 10.7894 6.15285 10.2557C6.15285 9.7339 6.33963 9.28916 6.71321 8.92151C7.08679 8.55387 7.53449 8.37004 8.05631 8.37004C8.57813 8.37004 9.02583 8.55387 9.39941 8.92151C9.77298 9.28916 9.95977 9.7339 9.95977 10.2557C9.95977 10.7775 9.77298 11.2252 9.39941 11.5988C9.02583 11.9724 8.57813 12.1592 8.05631 12.1592ZM14.1225 12.1592C13.6007 12.1592 13.1559 11.9754 12.7883 11.6077C12.4206 11.2401 12.2368 10.7894 12.2368 10.2557C12.2368 9.7339 12.4206 9.28916 12.7883 8.92151C13.1559 8.55387 13.6007 8.37004 14.1225 8.37004C14.6562 8.37004 15.1068 8.55387 15.4745 8.92151C15.8421 9.28916 16.0259 9.7339 16.0259 10.2557C16.0259 10.7775 15.8392 11.2252 15.4656 11.5988C15.092 11.9724 14.6443 12.1592 14.1225 12.1592ZM1.99013 12.1592C1.45645 12.1592 1.00579 11.9754 0.63814 11.6077C0.270493 11.2401 0.0866699 10.7894 0.0866699 10.2557C0.0866699 9.7339 0.270493 9.28916 0.63814 8.92151C1.00579 8.55387 1.45645 8.37004 1.99013 8.37004C2.51195 8.37004 2.95669 8.55387 3.32434 8.92151C3.69198 9.28916 3.87581 9.7339 3.87581 10.2557C3.87581 10.7775 3.69198 11.2252 3.32434 11.5988C2.95669 11.9724 2.51195 12.1592 1.99013 12.1592Z" fill="#526484"/>
</g>
<defs>
<clipPath id="clip0_15_1014">
<rect width="18.47" height="18.67" fill="white" transform="matrix(1 0 0 -1 0.0866699 19.2168)"/>
</clipPath>
</defs>
</svg>
