<svg width="19" height="19" viewBox="0 0 19 19" fill="none" xmlns="http://www.w3.org/2000/svg">
<g clip-path="url(#clip0_18_30)">
<path d="M13.2996 9.26255H7.99841V3.94352C7.99841 3.73005 7.92428 3.54919 7.77604 3.40095C7.62779 3.2527 7.44694 3.17858 7.23346 3.17858C7.01999 3.17858 6.83913 3.2527 6.69089 3.40095C6.54264 3.54919 6.46852 3.73005 6.46852 3.94352V9.26255H1.16729C0.953814 9.26255 0.772956 9.33667 0.624711 9.48491C0.476466 9.63316 0.402344 9.80809 0.402344 10.0097C0.402344 10.2232 0.476466 10.404 0.624711 10.5523C0.772956 10.7005 0.953814 10.7746 1.16729 10.7746H6.46852V16.0937C6.46852 16.2953 6.54264 16.4702 6.69089 16.6185C6.83913 16.7667 7.01999 16.8408 7.23346 16.8408C7.44694 16.8408 7.62779 16.7667 7.77604 16.6185C7.92428 16.4702 7.99841 16.2953 7.99841 16.0937V10.7746H13.2996C13.5131 10.7746 13.694 10.7005 13.8422 10.5523C13.9905 10.404 14.0646 10.2232 14.0646 10.0097C14.0646 9.80809 13.9905 9.63316 13.8422 9.48491C13.694 9.33667 13.5131 9.26255 13.2996 9.26255Z" fill="white"/>
</g>
<defs>
<clipPath id="clip0_18_30">
<rect width="18.67" height="18.67" fill="white" transform="matrix(1 0 0 -1 0.402344 18.9707)"/>
</clipPath>
</defs>
</svg>
