<svg width="25" height="25" viewBox="0 0 25 25" fill="none" xmlns="http://www.w3.org/2000/svg">
<g clip-path="url(#clip0_15_1383)">
<path d="M18.2849 15.165L18.4724 15.0947C19.0818 14.876 19.5818 14.501 19.9724 13.9697C20.363 13.4385 20.5583 12.8369 20.5583 12.165C20.5583 11.9932 20.5427 11.8291 20.5115 11.6729C20.4802 11.5166 20.4412 11.3604 20.3943 11.2041L20.4177 11.2275L19.6912 8.97754C19.6912 8.97754 19.6873 8.96191 19.6794 8.93066C19.6716 8.89941 19.6677 8.88379 19.6677 8.88379C19.4646 8.27441 19.1013 7.77441 18.5779 7.38379C18.0544 6.99316 17.4568 6.79785 16.7849 6.79785C16.613 6.79785 16.449 6.80957 16.2927 6.83301C16.1365 6.85645 15.9802 6.89941 15.824 6.96191L15.8474 6.93848L15.5427 7.05566C15.5115 7.05566 15.4802 7.05957 15.449 7.06738C15.4177 7.0752 15.3865 7.0791 15.3552 7.0791C15.2927 7.0791 15.2302 7.06738 15.1677 7.04395C15.1052 7.02051 15.0505 6.99316 15.0037 6.96191L14.9333 6.8916C14.8552 6.84473 14.7966 6.77832 14.7576 6.69238C14.7185 6.60645 14.699 6.5166 14.699 6.42285C14.699 6.42285 14.699 6.41895 14.699 6.41113C14.699 6.40332 14.699 6.39941 14.699 6.39941V6.16504C14.699 6.14941 14.699 6.1416 14.699 6.1416C14.699 6.1416 14.699 6.13379 14.699 6.11816C14.699 5.69629 14.6169 5.29785 14.4529 4.92285C14.2888 4.54785 14.0662 4.21973 13.7849 3.93848C13.5193 3.65723 13.2029 3.43848 12.8357 3.28223C12.4685 3.12598 12.074 3.04785 11.6521 3.04785H9.33179C8.48804 3.04785 7.76929 3.34863 7.17554 3.9502C6.58179 4.55176 6.28491 5.28223 6.28491 6.1416V6.35254C6.28491 6.46191 6.26147 6.56738 6.2146 6.66895C6.16772 6.77051 6.10522 6.85254 6.0271 6.91504L5.90991 7.00879C5.84741 7.05566 5.7771 7.09082 5.69897 7.11426C5.62085 7.1377 5.54272 7.14941 5.4646 7.14941C5.41772 7.14941 5.37476 7.14551 5.33569 7.1377C5.29663 7.12988 5.26147 7.11816 5.23022 7.10254V7.12598C5.0896 7.06348 4.94116 7.02051 4.78491 6.99707C4.62866 6.97363 4.4646 6.96191 4.29272 6.96191C3.60522 6.96191 2.99976 7.16504 2.47632 7.57129C1.95288 7.97754 1.60522 8.49316 1.43335 9.11816V9.1416L0.706787 11.4619C0.659912 11.6025 0.62085 11.7549 0.5896 11.9189C0.55835 12.083 0.542725 12.251 0.542725 12.4229C0.542725 13.0947 0.741943 13.7002 1.14038 14.2393C1.53882 14.7783 2.04272 15.1494 2.6521 15.3525L2.67554 15.376C2.70679 15.376 2.74194 15.3838 2.78101 15.3994C2.82007 15.415 2.85522 15.4229 2.88647 15.4229C2.9646 15.4697 3.03101 15.5322 3.08569 15.6104C3.14038 15.6885 3.17554 15.7744 3.19116 15.8682L3.26147 16.0088C3.2771 16.0557 3.28882 16.1025 3.29663 16.1494C3.30444 16.1963 3.30835 16.2432 3.30835 16.29C3.30835 16.3838 3.29663 16.4697 3.27319 16.5479C3.24976 16.626 3.2146 16.6963 3.16772 16.7588C2.99585 17.0088 2.85913 17.2861 2.75757 17.5908C2.65601 17.8955 2.60522 18.2197 2.60522 18.5635C2.60522 19.0635 2.7146 19.5283 2.93335 19.958C3.1521 20.3877 3.44897 20.7432 3.82397 21.0244V21.0479L5.67554 22.4072C5.92554 22.5947 6.19897 22.7432 6.49585 22.8525C6.79272 22.9619 7.11304 23.0244 7.45679 23.04C7.48804 23.04 7.51929 23.04 7.55054 23.04C7.58179 23.04 7.62085 23.04 7.66772 23.04C7.73022 23.04 7.79272 23.04 7.85522 23.04C7.91772 23.04 7.98022 23.0322 8.04272 23.0166H8.01929C8.44116 22.9541 8.82397 22.8096 9.16772 22.583C9.51147 22.3564 9.79272 22.0791 10.0115 21.751L10.0349 21.7275L10.2224 21.4463C10.2849 21.3682 10.3591 21.3018 10.4451 21.2471C10.531 21.1924 10.6208 21.165 10.7146 21.165C10.824 21.165 10.9216 21.1924 11.0076 21.2471C11.0935 21.3018 11.1677 21.3682 11.2302 21.4463L11.4412 21.7275C11.7068 22.0869 12.0505 22.376 12.4724 22.5947C12.8943 22.8135 13.3474 22.9229 13.8318 22.9229C14.1755 22.9229 14.5037 22.8682 14.8162 22.7588C15.1287 22.6494 15.4099 22.4932 15.6599 22.29L17.4646 20.9072C17.8396 20.6104 18.1365 20.2471 18.3552 19.8174C18.574 19.3877 18.6833 18.9229 18.6833 18.4229C18.6833 18.0791 18.6365 17.7588 18.5427 17.4619C18.449 17.165 18.3083 16.8838 18.1208 16.6182L18.1443 16.6416L17.9099 16.3135C17.863 16.251 17.8318 16.1807 17.8162 16.1025C17.8005 16.0244 17.7927 15.9463 17.7927 15.8682C17.7927 15.8369 17.7927 15.8018 17.7927 15.7627C17.7927 15.7236 17.8005 15.6807 17.8162 15.6338V15.6572C17.8474 15.5322 17.906 15.4268 17.9919 15.3408C18.0779 15.2549 18.1755 15.1963 18.2849 15.165ZM10.5505 17.04C9.44116 17.04 8.49585 16.6494 7.7146 15.8682C6.93335 15.0869 6.54272 14.1416 6.54272 13.0322C6.54272 11.9385 6.93335 11.001 7.7146 10.2197C8.49585 9.43848 9.44116 9.04785 10.5505 9.04785C11.6599 9.04785 12.6052 9.43848 13.3865 10.2197C14.1677 11.001 14.5583 11.9385 14.5583 13.0322C14.5583 14.1416 14.1677 15.0869 13.3865 15.8682C12.6052 16.6494 11.6599 17.04 10.5505 17.04ZM12.5427 13.0322C12.5427 13.5947 12.3474 14.0713 11.9568 14.4619C11.5662 14.8525 11.0974 15.0479 10.5505 15.0479C10.0037 15.0479 9.53491 14.8525 9.14429 14.4619C8.75366 14.0713 8.55835 13.5947 8.55835 13.0322C8.55835 12.4854 8.75366 12.0166 9.14429 11.626C9.53491 11.2354 10.0037 11.04 10.5505 11.04C11.0974 11.04 11.5662 11.2354 11.9568 11.626C12.3474 12.0166 12.5427 12.4854 12.5427 13.0322Z" fill="#8094AE"/>
</g>
<defs>
<clipPath id="clip0_15_1383">
<rect width="24" height="24" fill="white" transform="matrix(1 0 0 -1 0.542725 24.54)"/>
</clipPath>
</defs>
</svg>
