<svg width="17" height="18" viewBox="0 0 17 18" fill="none" xmlns="http://www.w3.org/2000/svg">
<g clip-path="url(#clip0_15_822)">
<path d="M7.45264 16.2422C6.53597 16.2422 5.67139 16.0651 4.85889 15.7109C4.04639 15.3672 3.33805 14.8932 2.73389 14.2891C2.12972 13.6849 1.65576 12.9766 1.31201 12.1641C0.957845 11.362 0.780762 10.4974 0.780762 9.57031C0.780762 8.65365 0.957845 7.78906 1.31201 6.97656C1.65576 6.17448 2.12972 5.47135 2.73389 4.86719C3.33805 4.26302 4.04639 3.78385 4.85889 3.42969C5.67139 3.08594 6.53597 2.91406 7.45264 2.91406C8.3693 2.91406 9.23389 3.08594 10.0464 3.42969C10.8589 3.78385 11.5672 4.26302 12.1714 4.86719C12.7756 5.47135 13.2495 6.17448 13.5933 6.97656C13.9474 7.78906 14.1245 8.65365 14.1245 9.57031C14.1245 10.4974 13.9474 11.362 13.5933 12.1641C13.2391 12.9766 12.7625 13.6849 12.1636 14.2891C11.5646 14.8932 10.8589 15.3672 10.0464 15.7109C9.23389 16.0651 8.3693 16.2422 7.45264 16.2422ZM7.45264 4.24219C6.71305 4.24219 6.02035 4.38281 5.37451 4.66406C4.72868 4.94531 4.16357 5.32552 3.6792 5.80469C3.19482 6.28385 2.81201 6.84635 2.53076 7.49219C2.25993 8.14844 2.12451 8.84115 2.12451 9.57031C2.12451 10.3099 2.25993 11.0026 2.53076 11.6484C2.81201 12.2943 3.19482 12.8594 3.6792 13.3438C4.16357 13.8281 4.72868 14.2109 5.37451 14.4922C6.02035 14.7734 6.71305 14.9141 7.45264 14.9141C8.19222 14.9141 8.88493 14.7734 9.53076 14.4922C10.1766 14.2109 10.7417 13.8281 11.2261 13.3438C11.7104 12.8594 12.0933 12.2943 12.3745 11.6484C12.6453 11.0026 12.7808 10.3099 12.7808 9.57031C12.7808 8.84115 12.6401 8.15365 12.3589 7.50781C12.0881 6.85156 11.7104 6.28385 11.2261 5.80469C10.7417 5.32552 10.1766 4.94531 9.53076 4.66406C8.88493 4.38281 8.19222 4.24219 7.45264 4.24219ZM7.81201 12.6016C7.83285 12.5807 7.85107 12.5547 7.8667 12.5234C7.88232 12.4922 7.89535 12.4661 7.90576 12.4453V12.4297C7.9266 12.4089 7.93962 12.3802 7.94482 12.3438C7.95003 12.3073 7.95264 12.2734 7.95264 12.2422C7.95264 12.2109 7.95003 12.1771 7.94482 12.1406C7.93962 12.1042 7.9266 12.0703 7.90576 12.0391V12.0547C7.89535 12.0234 7.88232 11.9948 7.8667 11.9688C7.85107 11.9427 7.83285 11.9141 7.81201 11.8828C7.75993 11.8411 7.70524 11.8073 7.64795 11.7812C7.59066 11.7552 7.52555 11.7422 7.45264 11.7422C7.42139 11.7422 7.38753 11.7448 7.35107 11.75C7.31462 11.7552 7.28076 11.7682 7.24951 11.7891H7.26514C7.23389 11.7995 7.20524 11.8125 7.1792 11.8281C7.15316 11.8438 7.12451 11.862 7.09326 11.8828C7.0516 11.9349 7.01514 11.9922 6.98389 12.0547C6.95264 12.1172 6.93701 12.1849 6.93701 12.2578C6.93701 12.3932 6.98649 12.5104 7.08545 12.6094C7.18441 12.7083 7.3016 12.7578 7.43701 12.7578C7.50993 12.7578 7.57764 12.7422 7.64014 12.7109C7.70264 12.6797 7.75993 12.6432 7.81201 12.6016ZM7.90576 10.1797V9.85156C8.18701 9.71615 8.52295 9.49219 8.91357 9.17969C9.3042 8.86719 9.49951 8.44531 9.49951 7.91406C9.49951 7.33073 9.29639 6.83594 8.89014 6.42969C8.48389 6.02344 7.9891 5.82031 7.40576 5.82031C6.94743 5.82031 6.54118 5.95052 6.18701 6.21094C5.83285 6.47135 5.58285 6.79948 5.43701 7.19531L5.42139 7.21094C5.41097 7.24219 5.40316 7.27344 5.39795 7.30469C5.39274 7.33594 5.39014 7.36719 5.39014 7.39844C5.39014 7.53385 5.43962 7.65104 5.53857 7.75C5.63753 7.84896 5.75472 7.89844 5.89014 7.89844C6.00472 7.89844 6.10628 7.86458 6.19482 7.79688C6.28337 7.72917 6.34326 7.64844 6.37451 7.55469C6.44743 7.33594 6.57764 7.15885 6.76514 7.02344C6.95264 6.88802 7.16618 6.82031 7.40576 6.82031C7.70785 6.82031 7.96566 6.92708 8.1792 7.14062C8.39274 7.35417 8.49951 7.61198 8.49951 7.91406C8.49951 8.19531 8.33285 8.4401 7.99951 8.64844C7.66618 8.85677 7.41618 8.98698 7.24951 9.03906C7.14535 9.07031 7.06201 9.13021 6.99951 9.21875C6.93701 9.30729 6.90576 9.40365 6.90576 9.50781V10.1797C6.90576 10.3151 6.95524 10.4323 7.0542 10.5312C7.15316 10.6302 7.27035 10.6797 7.40576 10.6797C7.54118 10.6797 7.65837 10.6302 7.75732 10.5312C7.85628 10.4323 7.90576 10.3151 7.90576 10.1797Z" fill="#DBDFEA"/>
</g>
<defs>
<clipPath id="clip0_15_822">
<rect width="16" height="16.67" fill="white" transform="matrix(1 0 0 -1 0.780762 17.5771)"/>
</clipPath>
</defs>
</svg>
