<svg width="25" height="25" viewBox="0 0 25 25" fill="none" xmlns="http://www.w3.org/2000/svg">
<g clip-path="url(#clip0_15_1276)">
<path d="M17.6372 16.5049C17.5903 16.4736 17.2075 15.9971 16.4888 15.0752C15.77 14.1533 15.4106 12.4268 15.4106 9.89551C15.395 9.05176 15.2153 8.27051 14.8716 7.55176C14.5435 6.81738 14.1021 6.18066 13.5474 5.6416C12.9927 5.10254 12.3481 4.67676 11.6138 4.36426C10.8794 4.05176 10.0903 3.89551 9.24658 3.89551C9.21533 3.89551 9.18408 3.89551 9.15283 3.89551C9.12158 3.89551 9.09814 3.90332 9.08252 3.91895C9.05127 3.90332 9.02393 3.89551 9.00049 3.89551C8.97705 3.89551 8.94971 3.89551 8.91846 3.89551C8.07471 3.89551 7.28564 4.05176 6.55127 4.36426C5.81689 4.67676 5.17236 5.10254 4.61768 5.6416C4.06299 6.18066 3.62158 6.81738 3.29346 7.55176C2.94971 8.27051 2.77002 9.04395 2.75439 9.87207V9.89551C2.75439 12.4268 2.39893 14.1533 1.68799 15.0752C0.977051 15.9971 0.598145 16.4736 0.55127 16.5049C0.410645 16.5986 0.297363 16.7197 0.211426 16.8682C0.125488 17.0166 0.0825195 17.1768 0.0825195 17.3486C0.0825195 17.6299 0.180176 17.8682 0.375488 18.0635C0.570801 18.2588 0.809082 18.3564 1.09033 18.3564H5.12158C5.23096 19.2471 5.57471 20.1768 6.15283 21.1455C6.73096 22.1143 7.70752 22.5986 9.08252 22.5986C10.4575 22.5986 11.4341 22.1143 12.0122 21.1455C12.5903 20.1768 12.9341 19.2471 13.0435 18.3564H17.0747C17.3091 18.3564 17.5122 18.29 17.6841 18.1572C17.856 18.0244 17.9731 17.8564 18.0356 17.6533V17.6299C18.0513 17.5986 18.063 17.5557 18.0708 17.501C18.0786 17.4463 18.0825 17.3955 18.0825 17.3486C18.0825 17.1768 18.0396 17.0166 17.9536 16.8682C17.8677 16.7197 17.7622 16.5986 17.6372 16.5049ZM9.08252 20.6064C8.41064 20.6064 7.93799 20.3408 7.66455 19.8096C7.39111 19.2783 7.22314 18.7939 7.16064 18.3564H11.0044C10.9419 18.7939 10.7739 19.2783 10.5005 19.8096C10.2271 20.3408 9.75439 20.6064 9.08252 20.6064ZM3.24658 16.3408C3.71533 15.4814 4.08643 14.5479 4.35986 13.54C4.6333 12.5322 4.77002 11.4814 4.77002 10.3877C4.77002 10.3096 4.76611 10.2236 4.7583 10.1299C4.75049 10.0361 4.74658 9.94238 4.74658 9.84863V9.89551C4.79346 8.77051 5.21924 7.8252 6.02393 7.05957C6.82861 6.29395 7.79346 5.91113 8.91846 5.91113C8.94971 5.91113 8.98096 5.91113 9.01221 5.91113C9.04346 5.91113 9.06689 5.91113 9.08252 5.91113C9.11377 5.91113 9.14111 5.91113 9.16455 5.91113C9.18799 5.91113 9.21533 5.91113 9.24658 5.91113C10.3716 5.91113 11.3364 6.29395 12.1411 7.05957C12.9458 7.8252 13.3716 8.7627 13.4185 9.87207V9.89551C13.4185 9.95801 13.4146 10.0361 13.4067 10.1299C13.3989 10.2236 13.395 10.3096 13.395 10.3877C13.395 11.4814 13.5317 12.5361 13.8052 13.5518C14.0786 14.5674 14.4653 15.5205 14.9653 16.4111L14.9185 16.3408H3.24658Z" fill="#526484"/>
</g>
<defs>
<clipPath id="clip0_15_1276">
<rect width="24" height="24" fill="white" transform="matrix(1 0 0 -1 0.0825195 24.7549)"/>
</clipPath>
</defs>
</svg>
