<svg width="25" height="25" viewBox="0 0 25 25" fill="none" xmlns="http://www.w3.org/2000/svg">
<g clip-path="url(#clip0_15_1353)">
<path d="M5.18335 9.39941C4.91772 9.13379 4.70679 8.81738 4.55054 8.4502C4.39429 8.08301 4.31616 7.68848 4.31616 7.2666C4.31616 7.21973 4.31616 7.17285 4.31616 7.12598C4.31616 7.0791 4.31616 7.04004 4.31616 7.00879C4.42554 5.91504 4.87866 4.98926 5.67554 4.23145C6.47241 3.47363 7.42554 3.0791 8.53491 3.04785H8.55835C9.6521 3.0791 10.6013 3.46582 11.406 4.20801C12.2107 4.9502 12.6677 5.86035 12.7771 6.93848V6.96191C12.7771 7.00879 12.781 7.05566 12.7888 7.10254C12.7966 7.14941 12.8005 7.2041 12.8005 7.2666C12.8005 7.68848 12.7224 8.0791 12.5662 8.43848C12.4099 8.79785 12.1912 9.11816 11.9099 9.39941C11.5193 9.75879 11.0701 10.0439 10.5623 10.2549C10.0544 10.4658 9.51147 10.5713 8.93335 10.5713C8.9021 10.5713 8.87476 10.5713 8.85132 10.5713C8.82788 10.5713 8.80054 10.5713 8.76929 10.5713H8.79272C8.74585 10.5713 8.70288 10.5713 8.66382 10.5713C8.62476 10.5713 8.5896 10.5713 8.55835 10.5713C8.51147 10.5713 8.45679 10.5713 8.39429 10.5713C8.33179 10.5713 8.2771 10.5713 8.23022 10.5713C7.63647 10.5713 7.07788 10.4658 6.55444 10.2549C6.03101 10.0439 5.57397 9.75879 5.18335 9.39941ZM18.0271 12.165C17.949 12.1182 17.8708 12.0869 17.7927 12.0713C17.7146 12.0557 17.6365 12.0479 17.5583 12.0479C17.2771 12.0479 17.0388 12.1455 16.8435 12.3408C16.6482 12.5361 16.5505 12.7666 16.5505 13.0322C16.5505 13.2354 16.5974 13.415 16.6912 13.5713C16.7849 13.7275 16.9177 13.8447 17.0896 13.9229C17.449 14.1104 17.781 14.6064 18.0857 15.4111C18.3904 16.2158 18.5427 17.1807 18.5427 18.3057V20.04C18.5427 20.3213 18.6404 20.5596 18.8357 20.7549C19.031 20.9502 19.2693 21.0479 19.5505 21.0479C19.8318 21.0479 20.0701 20.9502 20.2654 20.7549C20.4607 20.5596 20.5583 20.3213 20.5583 20.04V18.3057C20.5583 16.8525 20.3279 15.5674 19.8669 14.4502C19.406 13.333 18.7927 12.5713 18.0271 12.165ZM14.7224 9.44629C14.6443 9.47754 14.5701 9.5166 14.4998 9.56348C14.4294 9.61035 14.3552 9.64941 14.2771 9.68066C14.1365 9.77441 14.0232 9.89551 13.9373 10.0439C13.8513 10.1924 13.8083 10.3604 13.8083 10.5479C13.8083 10.8291 13.906 11.0674 14.1013 11.2627C14.2966 11.458 14.5349 11.5557 14.8162 11.5557C14.9099 11.5557 14.9998 11.54 15.0857 11.5088C15.1716 11.4775 15.2537 11.4385 15.3318 11.3916C15.3943 11.3604 15.4568 11.3252 15.5193 11.2861C15.5818 11.2471 15.6443 11.2041 15.7068 11.1572C16.1912 10.9541 16.6169 10.6729 16.9841 10.3135C17.3513 9.9541 17.6443 9.54004 17.863 9.07129V9.04785C17.863 9.03223 17.8669 9.0166 17.8748 9.00098C17.8826 8.98535 17.8865 8.96973 17.8865 8.9541V8.93066C17.9021 8.83691 17.9177 8.73535 17.9333 8.62598C17.949 8.5166 17.9568 8.40723 17.9568 8.29785C17.9568 7.40723 17.6833 6.61816 17.1365 5.93066C16.5896 5.24316 15.9021 4.79004 15.074 4.57129H15.0505C15.0193 4.57129 14.9802 4.56738 14.9333 4.55957C14.8865 4.55176 14.8396 4.54785 14.7927 4.54785C14.5271 4.54785 14.2966 4.64551 14.1013 4.84082C13.906 5.03613 13.8083 5.27441 13.8083 5.55566C13.8083 5.77441 13.8787 5.97363 14.0193 6.15332C14.1599 6.33301 14.3396 6.4541 14.5583 6.5166C14.9646 6.62598 15.3005 6.84863 15.5662 7.18457C15.8318 7.52051 15.9646 7.89941 15.9646 8.32129C15.9646 8.33691 15.9646 8.35645 15.9646 8.37988C15.9646 8.40332 15.9646 8.42285 15.9646 8.43848V8.41504C15.8083 8.64941 15.6248 8.85254 15.4138 9.02441C15.2029 9.19629 14.9724 9.3291 14.7224 9.42285V9.44629ZM12.0505 13.0322H5.04272C4.41772 13.0322 3.83179 13.1963 3.28491 13.5244C2.73804 13.8525 2.26147 14.3018 1.85522 14.8721C1.44897 15.4424 1.12866 16.1104 0.894287 16.876C0.659912 17.6572 0.542725 18.4932 0.542725 19.3838V20.5322C0.542725 20.5947 0.550537 20.6494 0.566162 20.6963C0.581787 20.7432 0.597412 20.79 0.613037 20.8369C0.644287 20.9307 0.691162 21.0205 0.753662 21.1064C0.816162 21.1924 0.886475 21.2666 0.9646 21.3291C1.23022 21.5791 1.60522 21.8057 2.0896 22.0088C2.5896 22.2275 3.16772 22.4111 3.82397 22.5596C4.48022 22.708 5.2146 22.8291 6.0271 22.9229C6.82397 23.001 7.66772 23.04 8.55835 23.04C9.43335 23.04 10.2771 23.001 11.0896 22.9229C11.8865 22.8291 12.6169 22.708 13.281 22.5596C13.9451 22.4111 14.5193 22.2275 15.0037 22.0088C15.5037 21.8057 15.8865 21.5791 16.1521 21.3291C16.2302 21.2666 16.2966 21.1924 16.3513 21.1064C16.406 21.0205 16.449 20.9307 16.4802 20.8369C16.5115 20.79 16.531 20.7432 16.5388 20.6963C16.5466 20.6494 16.5505 20.5947 16.5505 20.5322V19.3838C16.5505 18.4932 16.4333 17.6572 16.199 16.876C15.9646 16.1104 15.6443 15.4424 15.238 14.8721C14.8318 14.3018 14.3552 13.8525 13.8083 13.5244C13.2615 13.1963 12.6755 13.0322 12.0505 13.0322Z" fill="#8094AE"/>
</g>
<defs>
<clipPath id="clip0_15_1353">
<rect width="24" height="24" fill="white" transform="matrix(1 0 0 -1 0.542725 24.54)"/>
</clipPath>
</defs>
</svg>
