<svg width="25" height="25" viewBox="0 0 25 25" fill="none" xmlns="http://www.w3.org/2000/svg">
<g clip-path="url(#clip0_15_1362)">
<path d="M20.4412 6.44629C20.4412 5.88379 20.2615 5.3916 19.9021 4.96973C19.5271 4.54785 19.0427 4.19238 18.449 3.90332C17.8552 3.61426 17.1755 3.39941 16.4099 3.25879C15.6599 3.11816 14.8865 3.04785 14.0896 3.04785C13.3083 3.04785 12.5349 3.11816 11.7693 3.25879C11.0193 3.39941 10.3435 3.61426 9.74194 3.90332C9.14038 4.19238 8.65991 4.54785 8.30054 4.96973C7.94116 5.40723 7.76147 5.90723 7.76147 6.46973L7.83179 10.2666C7.67554 10.2666 7.51929 10.2627 7.36304 10.2549C7.20679 10.2471 7.05054 10.2432 6.89429 10.2432C6.12866 10.2432 5.37085 10.3057 4.62085 10.4307C3.85522 10.5557 3.17163 10.7432 2.57007 10.9932C1.96851 11.2432 1.48022 11.5635 1.10522 11.9541C0.730225 12.3447 0.542725 12.8057 0.542725 13.3369V13.3604L0.659912 19.9229C0.659912 20.4697 0.847412 20.9385 1.22241 21.3291C1.59741 21.7197 2.08569 22.04 2.68726 22.29C3.28882 22.54 3.9646 22.7275 4.7146 22.8525C5.48022 22.9775 6.24585 23.04 7.01147 23.04C8.19897 23.04 9.35132 22.8877 10.4685 22.583C11.5857 22.2783 12.3943 21.8057 12.8943 21.165C13.0974 21.1963 13.3083 21.2158 13.5271 21.2236C13.7458 21.2314 13.9724 21.2354 14.2068 21.2354C14.988 21.2354 15.7615 21.165 16.5271 21.0244C17.2927 20.8838 17.9724 20.6689 18.5662 20.3799C19.1599 20.0908 19.6365 19.7354 19.9958 19.3135C20.3708 18.876 20.5583 18.376 20.5583 17.8135L20.4412 6.44629ZM2.58179 15.2119C3.19116 15.4775 3.84741 15.6807 4.55054 15.8213C5.25366 15.9619 5.98022 16.0322 6.73022 16.0322C6.76147 16.0322 6.79663 16.0322 6.83569 16.0322C6.87476 16.0322 6.91772 16.0322 6.9646 16.0322H6.94116C6.98804 16.0322 7.0271 16.0322 7.05835 16.0322C7.0896 16.0322 7.12866 16.0322 7.17554 16.0322C7.90991 16.0322 8.62866 15.9619 9.33179 15.8213C10.0349 15.6807 10.7068 15.4775 11.3474 15.2119L11.2771 15.2354L11.3005 17.0869C10.7693 17.415 10.1794 17.6768 9.53101 17.8721C8.88257 18.0674 8.20679 18.165 7.50366 18.165C7.40991 18.165 7.31226 18.1611 7.21069 18.1533C7.10913 18.1455 7.01147 18.1416 6.91772 18.1416H6.94116C6.86304 18.1416 6.7771 18.1455 6.68335 18.1533C6.5896 18.1611 6.49585 18.165 6.4021 18.165C5.69897 18.165 5.0271 18.0713 4.38647 17.8838C3.74585 17.6963 3.14429 17.4307 2.58179 17.0869H2.60522L2.58179 15.2119ZM18.4724 10.501C17.9412 10.8447 17.3513 11.1182 16.7029 11.3213C16.0544 11.5244 15.3787 11.626 14.6755 11.626C14.5818 11.626 14.488 11.6221 14.3943 11.6143C14.3005 11.6064 14.2146 11.6025 14.1365 11.6025H14.1599C14.1443 11.6025 14.1365 11.6025 14.1365 11.6025C14.1365 11.6025 14.1287 11.6025 14.113 11.6025C13.738 11.6025 13.363 11.583 12.988 11.5439C12.613 11.5049 12.2458 11.4463 11.8865 11.3682H11.9568C11.6599 11.1963 11.3435 11.0439 11.0076 10.9111C10.6716 10.7783 10.3162 10.6729 9.94116 10.5947L9.89429 10.5713C9.87866 10.5557 9.86694 10.5439 9.85913 10.5361C9.85132 10.5283 9.8396 10.5166 9.82397 10.501L9.7771 8.32129C10.3865 8.57129 11.0388 8.77051 11.7341 8.91895C12.4294 9.06738 13.1521 9.1416 13.9021 9.1416C13.9333 9.1416 13.9685 9.1416 14.0076 9.1416C14.0466 9.1416 14.0818 9.1416 14.113 9.1416C14.1443 9.1416 14.1794 9.1416 14.2185 9.1416C14.2576 9.1416 14.2927 9.1416 14.324 9.1416C15.074 9.1416 15.8005 9.06738 16.5037 8.91895C17.2068 8.77051 17.8787 8.55566 18.5193 8.27441L18.449 8.29785L18.4724 10.501ZM13.2458 13.3369C13.2458 13.29 13.2419 13.2432 13.2341 13.1963C13.2263 13.1494 13.2146 13.1025 13.199 13.0557H13.2224C13.363 13.0713 13.5154 13.083 13.6794 13.0908C13.8435 13.0986 14.0037 13.1025 14.1599 13.1025C14.1912 13.1025 14.2263 13.1025 14.2654 13.1025C14.3044 13.1025 14.3396 13.1025 14.3708 13.1025C15.1208 13.1025 15.8474 13.0283 16.5505 12.8799C17.2537 12.7314 17.9255 12.5166 18.5662 12.2354L18.4958 12.2588L18.5193 14.5322C18.4099 14.626 18.2966 14.7158 18.1794 14.8018C18.0623 14.8877 17.9333 14.9541 17.7927 15.001L17.7693 15.0244C17.3162 15.2119 16.8279 15.3643 16.3044 15.4814C15.781 15.5986 15.238 15.6572 14.6755 15.6572C14.6443 15.6572 14.6091 15.6572 14.5701 15.6572C14.531 15.6572 14.488 15.6572 14.4412 15.6572C14.238 15.6572 14.0349 15.6533 13.8318 15.6455C13.6287 15.6377 13.4255 15.6182 13.2224 15.5869H13.2693L13.2458 13.3369ZM14.0896 5.04004C15.5115 5.04004 16.5935 5.23145 17.3357 5.61426C18.0779 5.99707 18.449 6.28223 18.449 6.46973V6.56348C17.9021 6.90723 17.3044 7.17285 16.656 7.36035C16.0076 7.54785 15.3318 7.6416 14.6287 7.6416C14.5349 7.6416 14.4451 7.6416 14.3591 7.6416C14.2732 7.6416 14.1833 7.6416 14.0896 7.6416H14.113C14.0349 7.6416 13.949 7.64551 13.8552 7.65332C13.7615 7.66113 13.6599 7.66504 13.5505 7.66504C12.8474 7.66504 12.1716 7.56348 11.5232 7.36035C10.8748 7.15723 10.2771 6.88379 9.73022 6.54004H9.75366V6.44629C9.75366 6.25879 10.1208 5.97754 10.8552 5.60254C11.5896 5.22754 12.6677 5.04004 14.0896 5.04004ZM6.89429 12.2354C8.25366 12.2354 9.30054 12.3838 10.0349 12.6807C10.7693 12.9775 11.1677 13.2041 11.2302 13.3604V13.5479C10.699 13.8604 10.113 14.1064 9.47241 14.2861C8.83179 14.4658 8.15991 14.5557 7.45679 14.5557C7.36304 14.5557 7.27319 14.5557 7.18726 14.5557C7.10132 14.5557 7.01147 14.5479 6.91772 14.5322H6.94116C5.72241 14.5322 4.74194 14.4072 3.99976 14.1572C3.25757 13.9072 2.7771 13.665 2.55835 13.4307V13.3604C2.63647 13.2041 3.04272 12.9775 3.7771 12.6807C4.51147 12.3838 5.55054 12.2354 6.89429 12.2354ZM7.01147 21.0479C5.63647 21.0479 4.58179 20.8955 3.84741 20.5908C3.11304 20.2861 2.7146 20.0635 2.6521 19.9229V18.8447C3.24585 19.0947 3.89038 19.29 4.58569 19.4307C5.28101 19.5713 5.99585 19.6416 6.73022 19.6416C6.7771 19.6416 6.81616 19.6416 6.84741 19.6416C6.87866 19.6416 6.91772 19.6416 6.9646 19.6416H6.94116C6.98804 19.6416 7.03101 19.6416 7.07007 19.6416C7.10913 19.6416 7.14429 19.6416 7.17554 19.6416C7.92554 19.6416 8.65601 19.5674 9.36694 19.4189C10.0779 19.2705 10.7615 19.0557 11.4177 18.7744L11.3474 18.8213V19.8994C11.2849 20.0557 10.8865 20.2861 10.1521 20.5908C9.41772 20.8955 8.37085 21.0479 7.01147 21.0479ZM14.2068 19.2432C14.0662 19.2432 13.9216 19.2393 13.7732 19.2314C13.6248 19.2236 13.4802 19.2119 13.3396 19.1963L13.2927 17.1104C13.4802 17.126 13.6638 17.1377 13.8435 17.1455C14.0232 17.1533 14.199 17.1572 14.3708 17.1572C14.4333 17.1572 14.4919 17.1572 14.5466 17.1572C14.6013 17.1572 14.6521 17.1572 14.699 17.1572C15.3708 17.1572 16.0232 17.0869 16.656 16.9463C17.2888 16.8057 17.8943 16.6104 18.4724 16.3604L18.4021 16.3838C18.4333 16.3682 18.4568 16.3525 18.4724 16.3369C18.488 16.3213 18.5115 16.3135 18.5427 16.3135V17.8369C18.5427 18.0088 18.1755 18.2861 17.4412 18.6689C16.7068 19.0518 15.6287 19.2432 14.2068 19.2432Z" fill="#8094AE"/>
</g>
<defs>
<clipPath id="clip0_15_1362">
<rect width="24" height="24" fill="white" transform="matrix(1 0 0 -1 0.542725 24.54)"/>
</clipPath>
</defs>
</svg>
