<svg width="25" height="25" viewBox="0 0 25 25" fill="none" xmlns="http://www.w3.org/2000/svg">
<g clip-path="url(#clip0_15_1315)">
<path d="M20.5583 8.04004H0.542725C0.542725 7.21191 0.835693 6.50488 1.42163 5.91895C2.00757 5.33301 2.7146 5.04004 3.54272 5.04004H5.55835V4.03223C5.55835 3.7666 5.65601 3.53613 5.85132 3.34082C6.04663 3.14551 6.2771 3.04785 6.54272 3.04785C6.82397 3.04785 7.06226 3.14551 7.25757 3.34082C7.45288 3.53613 7.55054 3.7666 7.55054 4.03223V5.04004H13.5505V4.03223C13.5505 3.7666 13.6482 3.53613 13.8435 3.34082C14.0388 3.14551 14.2771 3.04785 14.5583 3.04785C14.824 3.04785 15.0544 3.14551 15.2498 3.34082C15.4451 3.53613 15.5427 3.7666 15.5427 4.03223V5.04004H17.5583C18.3865 5.04004 19.0935 5.33301 19.6794 5.91895C20.2654 6.50488 20.5583 7.21191 20.5583 8.04004ZM0.542725 10.0322H20.5583V19.0322C20.5583 19.8604 20.2654 20.5674 19.6794 21.1533C19.0935 21.7393 18.3865 22.0322 17.5583 22.0322H3.54272C2.7146 22.0322 2.00757 21.7393 1.42163 21.1533C0.835693 20.5674 0.542725 19.8604 0.542725 19.0322V10.0322ZM13.5505 14.04C13.5505 14.1025 13.5583 14.1689 13.574 14.2393C13.5896 14.3096 13.613 14.3682 13.6443 14.415H13.6208C13.6521 14.4775 13.6873 14.5361 13.7263 14.5908C13.7654 14.6455 13.8005 14.6963 13.8318 14.7432C13.8943 14.79 13.949 14.8291 13.9958 14.8604C14.0115 14.8916 14.0349 14.9111 14.0662 14.9189C14.0974 14.9268 14.1287 14.9385 14.1599 14.9541C14.1912 14.9697 14.2224 14.9814 14.2537 14.9893C14.2849 14.9971 14.3162 15.0088 14.3474 15.0244H14.3708C14.3865 15.0244 14.4099 15.0283 14.4412 15.0361C14.4724 15.0439 14.5115 15.0479 14.5583 15.0479C14.5896 15.0479 14.6208 15.0439 14.6521 15.0361C14.6833 15.0283 14.7224 15.0244 14.7693 15.0244H14.7458C14.7771 15.0088 14.8083 14.9971 14.8396 14.9893C14.8708 14.9814 14.9021 14.9697 14.9333 14.9541C14.9646 14.9385 14.9958 14.9268 15.0271 14.9189C15.0583 14.9111 15.0896 14.8916 15.1208 14.8604C15.1365 14.8447 15.156 14.8291 15.1794 14.8135C15.2029 14.7979 15.2302 14.7744 15.2615 14.7432C15.3083 14.6963 15.3474 14.6455 15.3787 14.5908C15.4099 14.5361 15.4412 14.4854 15.4724 14.4385V14.415C15.5037 14.3682 15.5232 14.3096 15.531 14.2393C15.5388 14.1689 15.5427 14.1025 15.5427 14.04C15.5427 13.9775 15.5388 13.9111 15.531 13.8408C15.5232 13.7705 15.5037 13.7119 15.4724 13.665C15.4412 13.6025 15.4099 13.5439 15.3787 13.4893C15.3474 13.4346 15.3083 13.3838 15.2615 13.3369C15.2302 13.3057 15.2029 13.2822 15.1794 13.2666C15.156 13.251 15.1365 13.2354 15.1208 13.2197C15.0896 13.1885 15.0583 13.1689 15.0271 13.1611C14.9958 13.1533 14.9646 13.1416 14.9333 13.126C14.9021 13.1104 14.8708 13.0986 14.8396 13.0908C14.8083 13.083 14.7771 13.0713 14.7458 13.0557C14.7146 13.0557 14.6833 13.0518 14.6521 13.0439C14.6208 13.0361 14.5896 13.0322 14.5583 13.0322C14.4177 13.0322 14.2849 13.0596 14.1599 13.1143C14.0349 13.1689 13.9255 13.2432 13.8318 13.3369C13.8005 13.3838 13.7654 13.4346 13.7263 13.4893C13.6873 13.5439 13.6599 13.5947 13.6443 13.6416L13.6208 13.665C13.6052 13.7119 13.5896 13.7705 13.574 13.8408C13.5583 13.9111 13.5505 13.9775 13.5505 14.04ZM9.54272 14.04C9.54272 14.04 9.54272 14.0439 9.54272 14.0518C9.54272 14.0596 9.54272 14.0635 9.54272 14.0635C9.54272 14.126 9.55054 14.1885 9.56616 14.251C9.58179 14.3135 9.60522 14.3682 9.63647 14.415C9.6521 14.4775 9.67944 14.5361 9.71851 14.5908C9.75757 14.6455 9.80054 14.6963 9.84741 14.7432C9.89429 14.79 9.94507 14.833 9.99976 14.8721C10.0544 14.9111 10.1052 14.9385 10.1521 14.9541H10.1755C10.2224 14.9854 10.281 15.0088 10.3513 15.0244C10.4216 15.04 10.488 15.0479 10.5505 15.0479C10.6912 15.0479 10.8201 15.0205 10.9373 14.9658C11.0544 14.9111 11.1599 14.8369 11.2537 14.7432C11.3005 14.6963 11.3396 14.6455 11.3708 14.5908C11.4021 14.5361 11.4333 14.4854 11.4646 14.4385V14.415C11.4958 14.3682 11.5193 14.3096 11.5349 14.2393C11.5505 14.1689 11.5583 14.1025 11.5583 14.04C11.5583 13.9775 11.5505 13.9111 11.5349 13.8408C11.5193 13.7705 11.4958 13.7119 11.4646 13.665C11.4021 13.4775 11.2849 13.3252 11.113 13.208C10.9412 13.0908 10.7537 13.0322 10.5505 13.0322C10.3474 13.0322 10.1599 13.0908 9.98804 13.208C9.81616 13.3252 9.69897 13.4775 9.63647 13.665C9.60522 13.7119 9.58179 13.7666 9.56616 13.8291C9.55054 13.8916 9.54272 13.9541 9.54272 14.0166C9.54272 14.0166 9.54272 14.0205 9.54272 14.0283C9.54272 14.0361 9.54272 14.04 9.54272 14.04ZM9.54272 18.0479C9.54272 18.0479 9.54272 18.0557 9.54272 18.0713C9.54272 18.1338 9.55054 18.1963 9.56616 18.2588C9.58179 18.3213 9.60522 18.376 9.63647 18.4229C9.6521 18.4854 9.67944 18.5439 9.71851 18.5986C9.75757 18.6533 9.80054 18.7041 9.84741 18.751C9.94116 18.8447 10.0466 18.915 10.1638 18.9619C10.281 19.0088 10.4099 19.0322 10.5505 19.0322C10.6912 19.0322 10.8201 19.0088 10.9373 18.9619C11.0544 18.915 11.1599 18.8447 11.2537 18.751C11.3005 18.7041 11.3435 18.6533 11.3826 18.5986C11.4216 18.5439 11.449 18.4854 11.4646 18.4229C11.4958 18.3604 11.5193 18.2979 11.5349 18.2354C11.5505 18.1729 11.5583 18.1104 11.5583 18.0479C11.5583 17.9697 11.5505 17.8994 11.5349 17.8369C11.5193 17.7744 11.4958 17.7119 11.4646 17.6494C11.449 17.5869 11.4216 17.5283 11.3826 17.4736C11.3435 17.4189 11.3005 17.3682 11.2537 17.3213C11.1755 17.2432 11.074 17.1768 10.949 17.1221C10.824 17.0674 10.6912 17.04 10.5505 17.04C10.488 17.04 10.4216 17.0479 10.3513 17.0635C10.281 17.0791 10.2224 17.1025 10.1755 17.1338V17.1104C10.113 17.1416 10.0544 17.1768 9.99976 17.2158C9.94507 17.2549 9.89429 17.29 9.84741 17.3213C9.80054 17.3682 9.76147 17.4189 9.73022 17.4736C9.69897 17.5283 9.66772 17.5869 9.63647 17.6494C9.60522 17.7119 9.58179 17.7744 9.56616 17.8369C9.55054 17.8994 9.54272 17.9619 9.54272 18.0244C9.54272 18.0244 9.54272 18.0322 9.54272 18.0479ZM5.55835 18.0479C5.55835 18.1729 5.58179 18.2979 5.62866 18.4229C5.67554 18.5479 5.74585 18.6572 5.8396 18.751C5.85522 18.7666 5.87866 18.7861 5.90991 18.8096C5.94116 18.833 5.9646 18.8525 5.98022 18.8682C6.01147 18.8838 6.04272 18.8994 6.07397 18.915C6.10522 18.9307 6.13647 18.9463 6.16772 18.9619C6.19897 18.9775 6.23022 18.9893 6.26147 18.9971C6.29272 19.0049 6.32397 19.0088 6.35522 19.0088C6.38647 19.0244 6.41772 19.0322 6.44897 19.0322C6.48022 19.0322 6.51147 19.0322 6.54272 19.0322C6.5896 19.0322 6.62866 19.0322 6.65991 19.0322C6.69116 19.0322 6.72241 19.0244 6.75366 19.0088H6.73022C6.7771 19.0088 6.81616 19.0049 6.84741 18.9971C6.87866 18.9893 6.90991 18.9775 6.94116 18.9619C6.97241 18.9463 6.99976 18.9307 7.02319 18.915C7.04663 18.8994 7.07397 18.8838 7.10522 18.8682C7.13647 18.8525 7.16382 18.833 7.18726 18.8096C7.21069 18.7861 7.23804 18.7666 7.26929 18.751C7.34741 18.6572 7.41382 18.5518 7.46851 18.4346C7.52319 18.3174 7.55054 18.1885 7.55054 18.0479C7.55054 17.9072 7.52319 17.7744 7.46851 17.6494C7.41382 17.5244 7.34741 17.415 7.26929 17.3213C7.23804 17.3057 7.21069 17.29 7.18726 17.2744C7.16382 17.2588 7.13647 17.2354 7.10522 17.2041C7.07397 17.1885 7.04663 17.1729 7.02319 17.1572C6.99976 17.1416 6.97241 17.126 6.94116 17.1104C6.90991 17.0947 6.87866 17.083 6.84741 17.0752C6.81616 17.0674 6.78491 17.0635 6.75366 17.0635H6.73022C6.7146 17.0479 6.68726 17.04 6.64819 17.04C6.60913 17.04 6.57397 17.04 6.54272 17.04C6.51147 17.04 6.48022 17.04 6.44897 17.04C6.41772 17.04 6.38647 17.0479 6.35522 17.0635C6.32397 17.0635 6.29272 17.0713 6.26147 17.0869C6.23022 17.1025 6.19897 17.1104 6.16772 17.1104C6.13647 17.126 6.10522 17.1416 6.07397 17.1572C6.04272 17.1729 6.01147 17.1885 5.98022 17.2041L5.8396 17.3213C5.74585 17.415 5.67554 17.5244 5.62866 17.6494C5.58179 17.7744 5.55835 17.9072 5.55835 18.0479Z" fill="#8094AE"/>
</g>
<defs>
<clipPath id="clip0_15_1315">
<rect width="24" height="24" fill="white" transform="matrix(1 0 0 -1 0.542725 24.54)"/>
</clipPath>
</defs>
</svg>
