<svg width="14" height="14" viewBox="0 0 14 14" fill="none" xmlns="http://www.w3.org/2000/svg">
<g clip-path="url(#clip0_15_857)">
<path d="M5.40467 4.92746L3.28888 2.81167C3.23938 2.76218 3.18371 2.723 3.12184 2.69413C3.05998 2.66525 2.99192 2.65082 2.91769 2.65082C2.84345 2.65082 2.7754 2.66525 2.71353 2.69413C2.65167 2.723 2.59599 2.76218 2.54649 2.81167L0.430703 4.92746C0.381211 4.9687 0.344092 5.02232 0.319346 5.08831C0.2946 5.1543 0.282227 5.22441 0.282227 5.29865C0.282227 5.43888 0.333781 5.56055 0.43689 5.66366C0.539998 5.76677 0.661667 5.81832 0.801895 5.81832C0.876133 5.81832 0.946247 5.80595 1.01224 5.7812C1.07823 5.75645 1.13184 5.71934 1.17309 5.66984L2.38564 4.45728V11.6337C2.38564 11.7739 2.4372 11.8955 2.54031 11.9987C2.64342 12.1018 2.76921 12.1533 2.91769 12.1533C3.06616 12.1533 3.19195 12.1018 3.29506 11.9987C3.39817 11.8955 3.44973 11.7739 3.44973 11.6337V4.45728L4.66229 5.66984C4.70353 5.71109 4.75715 5.74614 4.82313 5.77501C4.88912 5.80388 4.95511 5.81832 5.0211 5.81832C5.16958 5.81832 5.29537 5.76677 5.39848 5.66366C5.50159 5.56055 5.55314 5.43476 5.55314 5.28628C5.55314 5.21204 5.53871 5.14399 5.50984 5.08212C5.48097 5.02026 5.44591 4.96458 5.40467 4.91509V4.92746Z" fill="#1EE0AC"/>
</g>
<defs>
<clipPath id="clip0_15_857">
<rect width="13" height="12.67" fill="white" transform="matrix(1 0 0 -1 0.117188 13.4775)"/>
</clipPath>
</defs>
</svg>
