<svg width="25" height="25" viewBox="0 0 25 25" fill="none" xmlns="http://www.w3.org/2000/svg">
<g clip-path="url(#clip0_15_1374)">
<path d="M22.5271 11.9307C22.4177 10.6494 22.0896 9.44629 21.5427 8.32129C20.9802 7.19629 20.2576 6.21582 19.3748 5.37988C18.4919 4.54395 17.4802 3.88379 16.3396 3.39941C15.1833 2.89941 13.9568 2.63379 12.6599 2.60254H12.6365H12.0974C12.0662 2.60254 12.0388 2.60254 12.0154 2.60254C11.9919 2.60254 11.9646 2.60254 11.9333 2.60254C11.1208 2.60254 10.3318 2.69629 9.56616 2.88379C8.80054 3.07129 8.07397 3.33691 7.38647 3.68066L7.43335 3.63379C6.5896 4.02441 5.80835 4.52441 5.0896 5.13379C4.38647 5.74316 3.78101 6.43066 3.27319 7.19629C2.76538 7.96191 2.37085 8.79004 2.0896 9.68066C1.80835 10.5869 1.65991 11.5322 1.64429 12.5166C1.64429 13.251 1.72632 13.9658 1.89038 14.6611C2.05444 15.3564 2.28491 16.0088 2.58179 16.6182L2.55835 16.5713L0.5896 22.1494C0.573975 22.1963 0.562256 22.2471 0.554443 22.3018C0.546631 22.3564 0.542725 22.415 0.542725 22.4775C0.542725 22.7588 0.640381 22.9971 0.835693 23.1924C1.03101 23.3877 1.26147 23.4854 1.5271 23.4854C1.5896 23.4854 1.64429 23.4814 1.69116 23.4736C1.73804 23.4658 1.78491 23.4541 1.83179 23.4385L7.80835 21.5635C8.43335 21.8291 9.10522 22.04 9.82397 22.1963C10.5427 22.3525 11.2927 22.4307 12.074 22.4307H12.0974C12.113 22.4307 12.1326 22.4307 12.156 22.4307C12.1794 22.4307 12.2068 22.4307 12.238 22.4307C13.2224 22.4307 14.1677 22.2979 15.074 22.0322C15.9802 21.7822 16.8279 21.4189 17.6169 20.9424C18.406 20.4658 19.1208 19.8916 19.7615 19.2197C20.4021 18.5635 20.9412 17.8291 21.3787 17.0166L21.4255 16.9697C21.7693 16.3291 22.0388 15.6299 22.2341 14.8721C22.4294 14.1143 22.5271 13.3291 22.5271 12.5166V11.9307ZM7.5271 14.5791C7.13647 14.5635 6.80054 14.4111 6.51929 14.1221C6.23804 13.833 6.09741 13.4932 6.09741 13.1025C6.09741 12.6963 6.24194 12.3486 6.53101 12.0596C6.82007 11.7705 7.16772 11.626 7.57397 11.626C7.98022 11.626 8.32397 11.7705 8.60522 12.0596C8.88647 12.3486 9.0271 12.6963 9.0271 13.1025C9.0271 13.5088 8.88257 13.8564 8.59351 14.1455C8.30444 14.4346 7.95679 14.5791 7.55054 14.5791C7.55054 14.5791 7.54663 14.5791 7.53882 14.5791C7.53101 14.5791 7.5271 14.5791 7.5271 14.5791ZM12.5427 14.5791C12.1365 14.5635 11.7927 14.4111 11.5115 14.1221C11.2302 13.833 11.0896 13.4932 11.0896 13.1025C11.0896 12.6963 11.2341 12.3486 11.5232 12.0596C11.8123 11.7705 12.1599 11.626 12.5662 11.626C12.9724 11.626 13.3201 11.7705 13.6091 12.0596C13.8982 12.3486 14.0427 12.6963 14.0427 13.1025C14.0271 13.5088 13.8748 13.8564 13.5857 14.1455C13.2966 14.4346 12.949 14.5791 12.5427 14.5791ZM17.5349 14.5791C17.1287 14.5635 16.7849 14.4111 16.5037 14.1221C16.2224 13.833 16.0818 13.4932 16.0818 13.1025C16.0818 12.6963 16.2263 12.3486 16.5154 12.0596C16.8044 11.7705 17.1521 11.626 17.5583 11.626C17.9646 11.626 18.3123 11.7705 18.6013 12.0596C18.8904 12.3486 19.0349 12.6963 19.0349 13.1025C19.0349 13.5088 18.8904 13.8564 18.6013 14.1455C18.3123 14.4346 17.9646 14.5791 17.5583 14.5791C17.5427 14.5791 17.5349 14.5791 17.5349 14.5791Z" fill="#8094AE"/>
</g>
<defs>
<clipPath id="clip0_15_1374">
<rect width="24" height="24" fill="white" transform="matrix(1 0 0 -1 0.542725 24.54)"/>
</clipPath>
</defs>
</svg>
