<svg width="15" height="15" viewBox="0 0 15 15" fill="none" xmlns="http://www.w3.org/2000/svg">
<g clip-path="url(#clip0_15_1177)">
<path d="M6.50146 9.40039C6.41943 9.40039 6.34424 9.38444 6.27588 9.35254C6.20752 9.32064 6.146 9.27734 6.09131 9.22266L3.58936 6.7207L1.0874 9.22266C1.03271 9.27734 0.971191 9.31836 0.902832 9.3457C0.834473 9.37305 0.759277 9.38672 0.677246 9.38672C0.522298 9.38672 0.387858 9.32975 0.273926 9.21582C0.159993 9.10189 0.103027 8.96289 0.103027 8.79883C0.103027 8.72591 0.116699 8.65527 0.144043 8.58691C0.171387 8.51855 0.212402 8.45703 0.26709 8.40234L3.1792 5.49023C3.23389 5.43555 3.29541 5.39225 3.36377 5.36035C3.43213 5.32845 3.50732 5.3125 3.58936 5.3125C3.67139 5.3125 3.74658 5.32845 3.81494 5.36035C3.8833 5.39225 3.94482 5.43555 3.99951 5.49023L6.91162 8.40234C6.96631 8.45703 7.0096 8.51855 7.0415 8.58691C7.0734 8.65527 7.08936 8.73047 7.08936 8.8125C7.08936 8.97656 7.03239 9.11556 6.91846 9.22949C6.80452 9.34342 6.66553 9.40039 6.50146 9.40039Z" fill="#798BFF"/>
</g>
<defs>
<clipPath id="clip0_15_1177">
<rect width="14" height="14" fill="white" transform="matrix(1 0 0 -1 0.103027 14.0625)"/>
</clipPath>
</defs>
</svg>
