<svg width="19" height="19" viewBox="0 0 19 19" fill="none" xmlns="http://www.w3.org/2000/svg">
<g clip-path="url(#clip0_18_19)">
<path d="M11.9634 12.9264C12.0345 12.9976 12.0908 13.0806 12.1324 13.1755C12.1739 13.2704 12.1946 13.3652 12.1946 13.4601C12.1946 13.5669 12.1739 13.6677 12.1324 13.7625C12.0908 13.8574 12.0345 13.9404 11.9634 14.0116L9.206 16.7689C9.13484 16.8282 9.05479 16.8787 8.96584 16.9202C8.8769 16.9617 8.77905 16.9824 8.67232 16.9824C8.56558 16.9824 8.46774 16.9617 8.37879 16.9202C8.28985 16.8787 8.20979 16.8282 8.13864 16.7689L5.38128 14.0116C5.31013 13.9404 5.25379 13.8574 5.21228 13.7625C5.17078 13.6677 5.15002 13.5669 5.15002 13.4601C5.15002 13.2467 5.22414 13.0658 5.37239 12.9176C5.52063 12.7693 5.70149 12.6952 5.91496 12.6952C6.0217 12.6952 6.11954 12.7159 6.20849 12.7574C6.29744 12.799 6.37749 12.8553 6.44865 12.9264L7.90737 14.3852V10.0268C7.90737 9.8133 7.9815 9.63245 8.12974 9.4842C8.27799 9.33596 8.45885 9.26183 8.67232 9.26183C8.88579 9.26183 9.06665 9.33596 9.21489 9.4842C9.36314 9.63245 9.43726 9.8133 9.43726 10.0268V14.3852L10.896 12.9264C10.9671 12.8553 11.0472 12.8019 11.1361 12.7663C11.2251 12.7308 11.3229 12.713 11.4297 12.713C11.5364 12.713 11.6372 12.7308 11.7321 12.7663C11.827 12.8019 11.9041 12.8553 11.9634 12.9264ZM16.2506 8.9772C15.8711 8.43166 15.3819 7.99879 14.783 7.67858C14.1841 7.35837 13.5288 7.19827 12.8172 7.19827H12.497C12.2717 6.58157 11.9693 6.01824 11.5898 5.50828C11.1984 5.01017 10.7448 4.5773 10.2289 4.20965C9.713 3.842 9.1467 3.55737 8.53 3.35576C7.9133 3.15415 7.27289 3.05334 6.60875 3.05334C5.73114 3.05334 4.91283 3.21345 4.15382 3.53366C3.3948 3.86572 2.73067 4.31639 2.16141 4.88565C1.59215 5.45491 1.14148 6.11904 0.809415 6.87806C0.489206 7.63707 0.329102 8.44945 0.329102 9.3152C0.329102 10.1217 0.468452 10.8807 0.747152 11.5922C1.02585 12.3038 1.41425 12.9383 1.91236 13.4957L1.89457 13.4779C1.96572 13.5609 2.05171 13.6262 2.15251 13.6736C2.25332 13.721 2.35709 13.7448 2.46383 13.7448C2.6773 13.7448 2.85816 13.6706 3.0064 13.5224C3.15465 13.3741 3.22877 13.1933 3.22877 12.9798C3.22877 12.8849 3.21098 12.793 3.1754 12.7041C3.13982 12.6151 3.09238 12.541 3.03309 12.4817C2.66544 12.0548 2.37488 11.5715 2.16141 11.0319C1.94793 10.4923 1.8412 9.92004 1.8412 9.3152C1.8412 8.66292 1.96572 8.04623 2.21478 7.46511C2.46383 6.89585 2.80479 6.39478 3.23766 5.96191C3.67054 5.52903 4.17161 5.18807 4.74087 4.93902C5.32199 4.68997 5.93868 4.56544 6.59096 4.56544C7.14836 4.56544 7.67611 4.65439 8.17422 4.83228C8.67232 5.01017 9.12298 5.25626 9.52621 5.57054C9.92943 5.88482 10.2734 6.26136 10.558 6.70016C10.8545 7.12711 11.068 7.59556 11.1984 8.10552L11.2162 8.1411C11.2518 8.30714 11.3378 8.44352 11.4741 8.55026C11.6105 8.657 11.7677 8.71036 11.9456 8.71036H12.8172C13.5525 8.71036 14.1841 8.97424 14.7118 9.50199C15.2396 10.0297 15.5034 10.6613 15.5034 11.3966C15.5034 11.8472 15.3997 12.2653 15.1921 12.6507C14.9846 13.0361 14.7088 13.3475 14.3649 13.5847V13.6024C14.2582 13.6736 14.1752 13.7625 14.1159 13.8693C14.0566 13.976 14.0269 14.0946 14.0269 14.2251C14.0269 14.4385 14.101 14.6194 14.2493 14.7676C14.3975 14.9159 14.5784 14.99 14.7919 14.99C14.8749 14.99 14.9549 14.9752 15.032 14.9455C15.1091 14.9159 15.1773 14.8773 15.2366 14.8299V14.8477C15.7821 14.4563 16.215 13.9612 16.5352 13.3623C16.8554 12.7634 17.0155 12.1081 17.0155 11.3966C17.0155 10.9459 16.9473 10.513 16.811 10.0979C16.6746 9.68285 16.4878 9.30334 16.2506 8.95941V8.9772Z" fill="#526484"/>
</g>
<defs>
<clipPath id="clip0_18_19">
<rect width="18.47" height="18.67" fill="white" transform="matrix(1 0 0 -1 0.329102 18.9707)"/>
</clipPath>
</defs>
</svg>
