<svg width="28" height="2" viewBox="0 0 28 2" fill="none" xmlns="http://www.w3.org/2000/svg">
<g clip-path="url(#clip0_15_609)">
<path d="M1.94518 1.33398C1.65851 1.33398 1.40978 1.33001 1.19899 1.32207C0.988206 1.31413 0.882812 1.30476 0.882812 1.29397C0.882812 1.28825 0.908107 1.28285 0.958696 1.27777C1.00929 1.27269 1.08517 1.26856 1.18635 1.26538L5.81525 1.09006L1.18635 0.915691C1.10203 0.91188 1.03036 0.907592 0.971343 0.902828C0.912323 0.898064 0.882812 0.893141 0.882812 0.888059C0.882812 0.876625 0.988206 0.866938 1.19899 0.858998C1.40978 0.851057 1.66694 0.847087 1.97048 0.847087C2.10538 0.847087 2.24029 0.84804 2.37519 0.849946C2.5101 0.851851 2.62814 0.85471 2.72931 0.858521L8.11705 1.06147C8.21823 1.06529 8.29412 1.06957 8.34471 1.07434C8.39529 1.0791 8.42059 1.08434 8.42059 1.09006C8.42059 1.09578 8.39529 1.10118 8.34471 1.10626C8.29412 1.11134 8.21823 1.11547 8.11705 1.11864L2.70402 1.32255C2.61971 1.32636 2.5101 1.32922 2.37519 1.33113C2.24029 1.33303 2.09695 1.33398 1.94518 1.33398Z" fill="#526484"/>
</g>
<defs>
<clipPath id="clip0_15_609">
<rect width="26.2623" height="1" fill="white" transform="matrix(1 0 0 -1 0.882812 1.57031)"/>
</clipPath>
</defs>
</svg>
