<svg width="25" height="25" viewBox="0 0 25 25" fill="none" xmlns="http://www.w3.org/2000/svg">
<g clip-path="url(#clip0_15_1341)">
<path d="M13.949 3.04785H3.54272C2.7146 3.04785 2.00757 3.34082 1.42163 3.92676C0.835693 4.5127 0.542725 5.21973 0.542725 6.04785V20.04C0.542725 20.8682 0.835693 21.5752 1.42163 22.1611C2.00757 22.7471 2.7146 23.04 3.54272 23.04H13.949C14.7771 23.04 15.4841 22.7471 16.0701 22.1611C16.656 21.5752 16.949 20.8682 16.949 20.04V6.04785C16.949 5.21973 16.656 4.5127 16.0701 3.92676C15.4841 3.34082 14.7771 3.04785 13.949 3.04785ZM14.9568 20.04C14.9568 20.3213 14.8591 20.5596 14.6638 20.7549C14.4685 20.9502 14.2302 21.0479 13.949 21.0479H3.54272C3.44897 21.0322 3.35522 21.0088 3.26147 20.9775C3.16772 20.9463 3.08179 20.9072 3.00366 20.8604L5.55835 18.1885L7.1521 19.8525C7.2146 19.9307 7.29272 19.9893 7.38647 20.0283C7.48022 20.0674 7.58179 20.0869 7.69116 20.0869C7.78491 20.0869 7.87476 20.0713 7.96069 20.04C8.04663 20.0088 8.12085 19.9619 8.18335 19.8994L11.9333 16.7119L11.7693 17.8369C11.7693 17.8525 11.7693 17.8682 11.7693 17.8838C11.7693 17.8994 11.7693 17.915 11.7693 17.9307C11.7693 18.1182 11.8318 18.2822 11.9568 18.4229C12.0818 18.5635 12.238 18.6494 12.4255 18.6807C12.4412 18.6807 12.4568 18.6807 12.4724 18.6807C12.488 18.6807 12.5037 18.6807 12.5193 18.6807C12.7068 18.6807 12.8708 18.6182 13.0115 18.4932C13.1521 18.3682 13.238 18.2119 13.2693 18.0244L13.6677 15.0244C13.6677 15.0088 13.6677 14.9932 13.6677 14.9775C13.6677 14.9619 13.6677 14.9463 13.6677 14.9307C13.6677 14.7432 13.6052 14.5791 13.4802 14.4385C13.3552 14.2979 13.2068 14.2119 13.0349 14.1807H13.0115L10.0115 13.7822C9.99585 13.7822 9.98022 13.7822 9.9646 13.7822C9.94897 13.7822 9.92554 13.7822 9.89429 13.7822C9.69116 13.7822 9.51538 13.8525 9.36694 13.9932C9.21851 14.1338 9.14429 14.3135 9.14429 14.5322C9.14429 14.7197 9.21069 14.8838 9.34351 15.0244C9.47632 15.165 9.63647 15.251 9.82397 15.2822L11.0896 15.4463L7.73804 18.3057L6.09741 16.5713C6.03491 16.5088 5.95679 16.458 5.86304 16.4189C5.76929 16.3799 5.66772 16.3604 5.55835 16.3604C5.44897 16.3604 5.34741 16.3799 5.25366 16.4189C5.15991 16.458 5.08179 16.5088 5.01929 16.5713L2.53491 19.1729V6.04785C2.53491 5.7666 2.63257 5.52832 2.82788 5.33301C3.02319 5.1377 3.26147 5.04004 3.54272 5.04004H13.949C14.2302 5.04004 14.4685 5.1377 14.6638 5.33301C14.8591 5.52832 14.9568 5.7666 14.9568 6.04785V20.04ZM12.7537 8.04004C12.7537 8.32129 12.656 8.55957 12.4607 8.75488C12.2654 8.9502 12.0271 9.04785 11.7458 9.04785H5.74585C5.4646 9.04785 5.22632 8.9502 5.03101 8.75488C4.83569 8.55957 4.73804 8.32129 4.73804 8.04004C4.73804 7.75879 4.83569 7.52051 5.03101 7.3252C5.22632 7.12988 5.4646 7.03223 5.74585 7.03223H11.7458C12.0271 7.03223 12.2654 7.12988 12.4607 7.3252C12.656 7.52051 12.7537 7.75879 12.7537 8.04004ZM8.74585 12.0479C8.74585 12.3135 8.64819 12.5439 8.45288 12.7393C8.25757 12.9346 8.01929 13.0322 7.73804 13.0322H5.74585C5.4646 13.0322 5.22632 12.9346 5.03101 12.7393C4.83569 12.5439 4.73804 12.3135 4.73804 12.0479C4.73804 11.7666 4.83569 11.5283 5.03101 11.333C5.22632 11.1377 5.4646 11.04 5.74585 11.04H7.73804C8.01929 11.04 8.25757 11.1377 8.45288 11.333C8.64819 11.5283 8.74585 11.7666 8.74585 12.0479Z" fill="#8094AE"/>
</g>
<defs>
<clipPath id="clip0_15_1341">
<rect width="24" height="24" fill="white" transform="matrix(1 0 0 -1 0.542725 24.54)"/>
</clipPath>
</defs>
</svg>
