<svg width="14" height="13" viewBox="0 0 14 13" fill="none" xmlns="http://www.w3.org/2000/svg">
<g clip-path="url(#clip0_15_1256)">
<path d="M1.20166 11.5059C1.18604 11.5059 1.17041 11.5059 1.15479 11.5059C1.13916 11.5059 1.12354 11.502 1.10791 11.4941C0.990723 11.4785 0.893066 11.4238 0.814941 11.3301C0.736816 11.2363 0.697754 11.127 0.697754 11.002C0.697754 10.9863 0.697754 10.9707 0.697754 10.9551C0.697754 10.9395 0.70166 10.9238 0.709473 10.9082V10.9199C0.73291 10.7637 0.768066 10.6074 0.814941 10.4512C0.955566 9.9668 1.17041 9.52148 1.45947 9.11523C1.74072 8.70898 2.07471 8.35938 2.46143 8.06641C2.84814 7.77344 3.27979 7.54492 3.75635 7.38086C4.2251 7.20898 4.72119 7.12305 5.24463 7.12305C5.76807 7.12305 6.26416 7.20508 6.73291 7.36914C7.20947 7.5332 7.64111 7.76172 8.02783 8.05469C8.41455 8.34766 8.74854 8.69727 9.02979 9.10352C9.31104 9.50195 9.52197 9.93945 9.6626 10.416L9.67432 10.4512C9.68994 10.5059 9.70752 10.5723 9.72705 10.6504C9.74658 10.7285 9.76416 10.8066 9.77979 10.8848V10.9082C9.7876 10.9238 9.7915 10.9395 9.7915 10.9551C9.7915 10.9707 9.7915 10.9863 9.7915 11.002C9.7915 11.1426 9.74268 11.2617 9.64502 11.3594C9.54736 11.457 9.42822 11.5059 9.2876 11.5059C9.17041 11.5059 9.06494 11.4668 8.97119 11.3887C8.87744 11.3105 8.81885 11.2129 8.79541 11.0957C8.7876 11.0176 8.77588 10.9473 8.76025 10.8848C8.74463 10.8223 8.7251 10.7637 8.70166 10.709L8.71338 10.7324C8.59619 10.3496 8.42822 9.99805 8.20947 9.67773C7.99072 9.36523 7.729 9.09375 7.42432 8.86328C7.11963 8.63281 6.78369 8.45117 6.4165 8.31836C6.0415 8.19336 5.65088 8.13086 5.24463 8.13086C4.83838 8.13086 4.44775 8.19336 4.07275 8.31836C3.70557 8.45117 3.36963 8.63086 3.06494 8.85742C2.76025 9.08398 2.49854 9.35742 2.27979 9.67773C2.06104 9.99023 1.89697 10.334 1.7876 10.709L1.77588 10.7324C1.76025 10.7793 1.74658 10.832 1.73486 10.8906C1.72314 10.9492 1.70947 11.0098 1.69385 11.0723V11.0957C1.67041 11.2129 1.61182 11.3105 1.51807 11.3887C1.42432 11.4668 1.31885 11.5059 1.20166 11.5059ZM7.64697 3.91211C7.64697 3.57617 7.58447 3.26367 7.45947 2.97461C7.33447 2.68555 7.1626 2.43164 6.94385 2.21289C6.7251 1.99414 6.47119 1.82227 6.18213 1.69727C5.88525 1.57227 5.57275 1.50977 5.24463 1.50977C4.9165 1.50977 4.604 1.57227 4.30713 1.69727C4.01807 1.82227 3.76416 1.99414 3.54541 2.21289C3.32666 2.43164 3.15479 2.68555 3.02979 2.97461C2.90479 3.26367 2.84229 3.57617 2.84229 3.91211C2.84229 4.24023 2.90479 4.55273 3.02979 4.84961C3.15479 5.13867 3.32666 5.39258 3.54541 5.61133C3.76416 5.83008 4.01807 6.00195 4.30713 6.12695C4.604 6.25195 4.9165 6.31445 5.24463 6.31445C5.57275 6.31445 5.88525 6.25195 6.18213 6.12695C6.47119 6.00195 6.7251 5.83008 6.94385 5.61133C7.1626 5.39258 7.33447 5.13867 7.45947 4.84961C7.58447 4.55273 7.64697 4.24023 7.64697 3.91211ZM6.65088 3.91211C6.65088 4.29492 6.51416 4.625 6.24072 4.90234C5.96729 5.17969 5.63525 5.31836 5.24463 5.31836C4.854 5.31836 4.52197 5.17969 4.24854 4.90234C3.9751 4.625 3.83838 4.29492 3.83838 3.91211C3.83838 3.52148 3.9751 3.18945 4.24854 2.91602C4.52197 2.64258 4.854 2.50586 5.24463 2.50586C5.63525 2.50586 5.96729 2.64258 6.24072 2.91602C6.51416 3.18945 6.65088 3.52148 6.65088 3.91211Z" fill="white"/>
</g>
<defs>
<clipPath id="clip0_15_1256">
<rect width="12.73" height="12" fill="white" transform="matrix(1 0 0 -1 0.692871 12.2559)"/>
</clipPath>
</defs>
</svg>
