<svg width="17" height="17" viewBox="0 0 17 17" fill="none" xmlns="http://www.w3.org/2000/svg">
<g clip-path="url(#clip0_15_698)">
<path d="M7.64868 2.34375C6.73201 2.34375 5.86743 2.51562 5.05493 2.85938C4.24243 3.21354 3.5341 3.69271 2.92993 4.29688C2.32576 4.90104 1.85181 5.60417 1.50806 6.40625C1.15389 7.21875 0.976807 8.08333 0.976807 9C0.976807 9.92708 1.15389 10.7917 1.50806 11.5938C1.85181 12.4062 2.32576 13.1146 2.92993 13.7188C3.5341 14.3229 4.24243 14.7969 5.05493 15.1406C5.86743 15.4948 6.73201 15.6719 7.64868 15.6719C8.56535 15.6719 9.42993 15.4948 10.2424 15.1406C11.0549 14.7969 11.7633 14.3229 12.3674 13.7188C12.9716 13.1146 13.4456 12.4062 13.7893 11.5938C14.1435 10.7917 14.3206 9.92708 14.3206 9C14.3206 8.08333 14.1435 7.21875 13.7893 6.40625C13.4351 5.60417 12.9586 4.90104 12.3596 4.29688C11.7607 3.69271 11.0549 3.21354 10.2424 2.85938C9.42993 2.51562 8.56535 2.34375 7.64868 2.34375ZM8.00806 12.0312C7.95597 12.0729 7.90129 12.1042 7.84399 12.125C7.7867 12.1458 7.72681 12.1562 7.66431 12.1562C7.52889 12.1562 7.4117 12.1068 7.31274 12.0078C7.21379 11.9089 7.16431 11.7917 7.16431 11.6562C7.16431 11.5938 7.17472 11.5339 7.19556 11.4766C7.21639 11.4193 7.24764 11.3646 7.28931 11.3125C7.32056 11.2917 7.3492 11.2734 7.37524 11.2578C7.40129 11.2422 7.42472 11.2292 7.44556 11.2188H7.46118C7.48201 11.1979 7.51066 11.1849 7.54712 11.1797C7.58358 11.1745 7.61743 11.1719 7.64868 11.1719C7.7841 11.1719 7.90129 11.2214 8.00024 11.3203C8.0992 11.4193 8.14868 11.5365 8.14868 11.6719C8.14868 11.7448 8.13566 11.8099 8.10962 11.8672C8.08358 11.9245 8.04972 11.9792 8.00806 12.0312ZM8.10181 9.28125V9.59375C8.10181 9.73958 8.05233 9.85938 7.95337 9.95312C7.85441 10.0469 7.73722 10.0938 7.60181 10.0938C7.46639 10.0938 7.3492 10.0469 7.25024 9.95312C7.15129 9.85938 7.10181 9.73958 7.10181 9.59375V8.9375C7.10181 8.83333 7.13306 8.73698 7.19556 8.64844C7.25806 8.5599 7.34139 8.5 7.44556 8.46875C7.61222 8.41667 7.86222 8.28646 8.19556 8.07812C8.52889 7.86979 8.69556 7.625 8.69556 7.34375C8.69556 7.04167 8.58879 6.78125 8.37524 6.5625C8.1617 6.34375 7.90389 6.23438 7.60181 6.23438C7.36222 6.23438 7.14868 6.30469 6.96118 6.44531C6.77368 6.58594 6.64347 6.76042 6.57056 6.96875V6.98438C6.52889 7.07812 6.46639 7.15625 6.38306 7.21875C6.29972 7.28125 6.20597 7.3125 6.10181 7.3125C5.95597 7.3125 5.83618 7.26302 5.74243 7.16406C5.64868 7.0651 5.60181 6.94792 5.60181 6.8125C5.60181 6.78125 5.60441 6.7526 5.60962 6.72656C5.61483 6.70052 5.61743 6.67188 5.61743 6.64062C5.77368 6.23438 6.02889 5.90104 6.38306 5.64062C6.73722 5.38021 7.14347 5.25 7.60181 5.25C8.18514 5.25 8.67993 5.45312 9.08618 5.85938C9.49243 6.26562 9.69556 6.76042 9.69556 7.34375C9.69556 7.875 9.50024 8.29688 9.10962 8.60938C8.71899 8.92188 8.38306 9.14583 8.10181 9.28125Z" fill="#DBDFEA"/>
</g>
<defs>
<clipPath id="clip0_15_698">
<rect width="16" height="16.67" fill="white" transform="matrix(1 0 0 -1 0.976807 17.0068)"/>
</clipPath>
</defs>
</svg>
