<svg width="14" height="14" viewBox="0 0 14 14" fill="none" xmlns="http://www.w3.org/2000/svg">
<g clip-path="url(#clip0_15_970)">
<path d="M5.61414 4.86691L3.49835 2.75112C3.44886 2.70163 3.39318 2.66245 3.33131 2.63358C3.26945 2.60471 3.2014 2.59027 3.12716 2.59027C3.05292 2.59027 2.98487 2.60471 2.923 2.63358C2.86114 2.66245 2.80546 2.70163 2.75597 2.75112L0.640176 4.86691C0.590684 4.90816 0.553564 4.96177 0.528818 5.02776C0.504072 5.09375 0.491699 5.16387 0.491699 5.2381C0.491699 5.37833 0.543254 5.5 0.646362 5.60311C0.749471 5.70622 0.871139 5.75777 1.01137 5.75777C1.08561 5.75777 1.15572 5.7454 1.22171 5.72065C1.2877 5.69591 1.34132 5.65879 1.38256 5.6093L2.59512 4.39674V11.5731C2.59512 11.7133 2.64667 11.835 2.74978 11.9381C2.85289 12.0412 2.97868 12.0928 3.12716 12.0928C3.27563 12.0928 3.40143 12.0412 3.50454 11.9381C3.60764 11.835 3.6592 11.7133 3.6592 11.5731V4.39674L4.87176 5.6093C4.913 5.65054 4.96662 5.6856 5.03261 5.71447C5.0986 5.74334 5.16459 5.75777 5.23058 5.75777C5.37905 5.75777 5.50485 5.70622 5.60795 5.60311C5.71106 5.5 5.76262 5.37421 5.76262 5.22573C5.76262 5.15149 5.74818 5.08344 5.71931 5.02158C5.69044 4.95971 5.65538 4.90403 5.61414 4.85454V4.86691Z" fill="#E85347"/>
</g>
<defs>
<clipPath id="clip0_15_970">
<rect width="13" height="12.67" fill="white" transform="matrix(1 0 0 -1 0.32666 13.417)"/>
</clipPath>
</defs>
</svg>
