<svg width="15" height="15" viewBox="0 0 15 15" fill="none" xmlns="http://www.w3.org/2000/svg">
<g clip-path="url(#clip0_15_1267)">
<path d="M3.53906 10.0957C3.45703 10.0957 3.38184 10.0798 3.31348 10.0479C3.24512 10.016 3.18359 9.97266 3.12891 9.91797L0.216797 7.00586C0.162109 6.95117 0.121094 6.88965 0.09375 6.82129C0.0664062 6.75293 0.0527344 6.67773 0.0527344 6.5957C0.0527344 6.44076 0.109701 6.30632 0.223633 6.19238C0.337565 6.07845 0.472005 6.02148 0.626953 6.02148C0.708984 6.02148 0.78418 6.03516 0.852539 6.0625C0.920898 6.08984 0.982422 6.13086 1.03711 6.18555L3.53906 8.6875L6.04102 6.18555C6.0957 6.13086 6.15723 6.08984 6.22559 6.0625C6.29395 6.03516 6.36914 6.02148 6.45117 6.02148C6.60612 6.02148 6.74056 6.07845 6.85449 6.19238C6.96842 6.30632 7.02539 6.44076 7.02539 6.5957C7.02539 6.67773 7.01172 6.75293 6.98438 6.82129C6.95703 6.88965 6.91602 6.95117 6.86133 7.00586L3.94922 9.91797C3.89453 9.97266 3.83301 10.016 3.76465 10.0479C3.69629 10.0798 3.62109 10.0957 3.53906 10.0957Z" fill="#526484"/>
</g>
<defs>
<clipPath id="clip0_15_1267">
<rect width="14" height="14" fill="white" transform="matrix(1 0 0 -1 0.0527344 14.7578)"/>
</clipPath>
</defs>
</svg>
