<svg width="27" height="2" viewBox="0 0 27 2" fill="none" xmlns="http://www.w3.org/2000/svg">
<g clip-path="url(#clip0_15_1321)">
<path d="M1.76917 1.25684C1.48678 1.25684 1.24176 1.25357 1.03412 1.24705C0.826477 1.24052 0.722656 1.23282 0.722656 1.22394C0.722656 1.21924 0.747573 1.2148 0.797408 1.21063C0.847242 1.20645 0.921993 1.20306 1.02166 1.20045L5.58149 1.05634L1.02166 0.913016C0.938604 0.909883 0.868006 0.906359 0.809866 0.902443C0.751726 0.898527 0.722656 0.894481 0.722656 0.890304C0.722656 0.880905 0.826477 0.872943 1.03412 0.866416C1.24176 0.85989 1.49509 0.856627 1.79409 0.856627C1.92698 0.856627 2.05987 0.85741 2.19276 0.858976C2.32566 0.860543 2.44194 0.862892 2.5416 0.866025L7.84895 1.03284C7.94861 1.03598 8.02336 1.0395 8.0732 1.04342C8.12303 1.04733 8.14795 1.05164 8.14795 1.05634C8.14795 1.06104 8.12303 1.06548 8.0732 1.06965C8.02336 1.07383 7.94861 1.07722 7.84895 1.07984L2.51669 1.24744C2.43363 1.25057 2.32566 1.25292 2.19276 1.25449C2.05987 1.25605 1.91868 1.25684 1.76917 1.25684Z" fill="white" fill-opacity="0.4"/>
</g>
<defs>
<clipPath id="clip0_15_1321">
<rect width="25.7065" height="1" fill="white" transform="matrix(1 0 0 -1 0.722656 1.54004)"/>
</clipPath>
</defs>
</svg>
