<svg width="20" height="20" viewBox="0 0 20 20" fill="none" xmlns="http://www.w3.org/2000/svg">
<g clip-path="url(#clip0_15_617)">
<path d="M10.865 3.02586H2.96649C2.33794 3.02586 1.80129 3.24823 1.35655 3.69296C0.91182 4.1377 0.689453 4.67434 0.689453 5.3029V15.9232C0.689453 16.5517 0.91182 17.0884 1.35655 17.5331C1.80129 17.9778 2.33794 18.2002 2.96649 18.2002H10.865C11.4935 18.2002 12.0302 17.9778 12.4749 17.5331C12.9196 17.0884 13.142 16.5517 13.142 15.9232V5.3029C13.142 4.67434 12.9196 4.1377 12.4749 3.69296C12.0302 3.24823 11.4935 3.02586 10.865 3.02586ZM11.6299 15.9232C11.6299 16.1366 11.5558 16.3175 11.4076 16.4657C11.2593 16.614 11.0784 16.6881 10.865 16.6881H2.96649C2.89534 16.6762 2.82418 16.6584 2.75302 16.6347C2.68186 16.611 2.61664 16.5814 2.55734 16.5458L4.49638 14.5178L5.70606 15.7808C5.75349 15.8401 5.81279 15.8846 5.88395 15.9143C5.95511 15.9439 6.03219 15.9587 6.11521 15.9587C6.18637 15.9587 6.25456 15.9469 6.31979 15.9232C6.38502 15.8994 6.44135 15.8639 6.48879 15.8164L9.33509 13.3971L9.21056 14.251C9.21056 14.2628 9.21056 14.2747 9.21056 14.2865C9.21056 14.2984 9.21056 14.3103 9.21056 14.3221C9.21056 14.4644 9.258 14.589 9.35288 14.6957C9.44775 14.8024 9.56635 14.8677 9.70867 14.8914C9.72052 14.8914 9.73238 14.8914 9.74424 14.8914C9.7561 14.8914 9.76796 14.8914 9.77982 14.8914C9.92214 14.8914 10.0467 14.8439 10.1534 14.7491C10.2601 14.6542 10.3254 14.5356 10.3491 14.3933L10.6515 12.1162C10.6515 12.1044 10.6515 12.0925 10.6515 12.0807C10.6515 12.0688 10.6515 12.0569 10.6515 12.0451C10.6515 11.9028 10.6041 11.7782 10.5092 11.6715C10.4143 11.5648 10.3016 11.4995 10.1712 11.4758H10.1534L7.87636 11.1734C7.8645 11.1734 7.85264 11.1734 7.84078 11.1734C7.82892 11.1734 7.81113 11.1734 7.78741 11.1734C7.63324 11.1734 7.49982 11.2268 7.38715 11.3335C7.27449 11.4402 7.21815 11.5766 7.21815 11.7427C7.21815 11.885 7.26856 12.0095 7.36936 12.1162C7.47017 12.223 7.59173 12.2882 7.73404 12.3119L8.69467 12.4364L6.15079 14.6067L4.90553 13.2903C4.8581 13.2429 4.7988 13.2043 4.72764 13.1747C4.65648 13.145 4.5794 13.1302 4.49638 13.1302C4.41336 13.1302 4.33627 13.145 4.26512 13.1747C4.19396 13.2043 4.13466 13.2429 4.08722 13.2903L2.20155 15.2649V5.3029C2.20155 5.08943 2.27567 4.90857 2.42392 4.76032C2.57216 4.61208 2.75302 4.53796 2.96649 4.53796H10.865C11.0784 4.53796 11.2593 4.61208 11.4076 4.76032C11.5558 4.90857 11.6299 5.08943 11.6299 5.3029V15.9232ZM9.95772 6.815C9.95772 7.02847 9.88359 7.20933 9.73535 7.35757C9.5871 7.50582 9.40625 7.57994 9.19277 7.57994H4.63869C4.42522 7.57994 4.24436 7.50582 4.09612 7.35757C3.94787 7.20933 3.87375 7.02847 3.87375 6.815C3.87375 6.60152 3.94787 6.42067 4.09612 6.27242C4.24436 6.12418 4.42522 6.05005 4.63869 6.05005H9.19277C9.40625 6.05005 9.5871 6.12418 9.73535 6.27242C9.88359 6.42067 9.95772 6.60152 9.95772 6.815ZM6.91573 9.85698C6.91573 10.0586 6.84161 10.2335 6.69337 10.3818C6.54512 10.53 6.36426 10.6041 6.15079 10.6041H4.63869C4.42522 10.6041 4.24436 10.53 4.09612 10.3818C3.94787 10.2335 3.87375 10.0586 3.87375 9.85698C3.87375 9.64351 3.94787 9.46265 4.09612 9.3144C4.24436 9.16616 4.42522 9.09204 4.63869 9.09204H6.15079C6.36426 9.09204 6.54512 9.16616 6.69337 9.3144C6.84161 9.46265 6.91573 9.64351 6.91573 9.85698Z" fill="white"/>
</g>
<defs>
<clipPath id="clip0_15_617">
<rect width="18.47" height="18.67" fill="white" transform="matrix(1 0 0 -1 0.689453 19.5654)"/>
</clipPath>
</defs>
</svg>
