<svg width="25" height="25" viewBox="0 0 25 25" fill="none" xmlns="http://www.w3.org/2000/svg">
<g clip-path="url(#clip0_15_1396)">
<path d="M18.3083 9.08398V17.4043C18.3083 17.7168 18.2341 17.998 18.0857 18.248C17.9373 18.498 17.738 18.7012 17.488 18.8574H17.4646L10.2693 23.0059C10.1443 23.084 10.0115 23.1426 9.87085 23.1816C9.73022 23.2207 9.58179 23.2402 9.42554 23.2402C9.26929 23.2402 9.12085 23.2207 8.98022 23.1816C8.8396 23.1426 8.70679 23.084 8.58179 23.0059L1.38647 18.8574C1.12085 18.7012 0.913818 18.498 0.765381 18.248C0.616943 17.998 0.542725 17.7168 0.542725 17.4043V9.08398C0.542725 8.77148 0.616943 8.48633 0.765381 8.22852C0.913818 7.9707 1.11304 7.77148 1.36304 7.63086H1.38647L8.58179 3.45898C8.70679 3.39648 8.8396 3.3457 8.98022 3.30664C9.12085 3.26758 9.26929 3.24805 9.42554 3.24805C9.58179 3.24805 9.73022 3.26758 9.87085 3.30664C10.0115 3.3457 10.1443 3.39648 10.2693 3.45898L17.4646 7.63086C17.7302 7.77148 17.9373 7.9707 18.0857 8.22852C18.2341 8.48633 18.3083 8.77148 18.3083 9.08398ZM9.0271 16.6543L6.65991 15.2949C6.55054 15.2168 6.45679 15.1191 6.37866 15.002C6.30054 14.8848 6.26147 14.7559 6.26147 14.6152V11.873C6.26147 11.7324 6.29663 11.5996 6.36694 11.4746C6.43726 11.3496 6.53491 11.2559 6.65991 11.1934L9.0271 9.83398C9.0896 9.78711 9.1521 9.75586 9.2146 9.74023C9.2771 9.72461 9.34741 9.7168 9.42554 9.7168C9.50366 9.7168 9.57397 9.72461 9.63647 9.74023C9.69897 9.75586 9.76147 9.78711 9.82397 9.83398H9.84741V8.7793C9.78491 8.76367 9.71851 8.74805 9.64819 8.73242C9.57788 8.7168 9.50366 8.70898 9.42554 8.70898C9.33179 8.70898 9.24194 8.7207 9.15601 8.74414C9.07007 8.76758 8.98804 8.79492 8.90991 8.82617H8.93335L5.86304 10.6074C5.70679 10.6855 5.58179 10.8027 5.48804 10.959C5.39429 11.1152 5.34741 11.2871 5.34741 11.4746V15.0137C5.34741 15.2012 5.39429 15.3691 5.48804 15.5176C5.58179 15.666 5.70679 15.7871 5.86304 15.8809L8.93335 17.6387C8.99585 17.6855 9.07007 17.7207 9.15601 17.7441C9.24194 17.7676 9.33179 17.7793 9.42554 17.7793C9.51929 17.7793 9.60913 17.7676 9.69507 17.7441C9.78101 17.7207 9.86304 17.6855 9.94116 17.6387H9.91772L12.988 15.8809C13.1443 15.7871 13.2693 15.666 13.363 15.5176C13.4568 15.3691 13.5037 15.2012 13.5037 15.0137V8.7793L12.5896 8.24023V14.6152C12.5896 14.7559 12.5505 14.8848 12.4724 15.002C12.3943 15.1191 12.3005 15.2168 12.1912 15.2949L9.82397 16.6543C9.76147 16.6855 9.69897 16.7129 9.63647 16.7363C9.57397 16.7598 9.50366 16.7715 9.42554 16.7715C9.34741 16.7715 9.2771 16.7598 9.2146 16.7363C9.1521 16.7129 9.0896 16.6855 9.0271 16.6543ZM14.4177 9.31836V15.4121C14.4177 15.6309 14.3591 15.834 14.2419 16.0215C14.1248 16.209 13.9724 16.3574 13.7849 16.4668L10.0349 18.6465C9.95679 18.6934 9.86304 18.7324 9.75366 18.7637C9.64429 18.7949 9.53491 18.8105 9.42554 18.8105C9.31616 18.8105 9.20679 18.7949 9.09741 18.7637C8.98804 18.7324 8.88647 18.6934 8.79272 18.6465H8.81616L5.06616 16.4668C4.87866 16.3574 4.72632 16.209 4.60913 16.0215C4.49194 15.834 4.43335 15.6309 4.43335 15.4121V11.0762C4.43335 10.8418 4.49194 10.6309 4.60913 10.4434C4.72632 10.2559 4.87866 10.1074 5.06616 9.99805L8.81616 7.8418C8.89429 7.79492 8.98804 7.75586 9.09741 7.72461C9.20679 7.69336 9.31616 7.67773 9.42554 7.67773C9.53491 7.67773 9.64429 7.69336 9.75366 7.72461C9.86304 7.75586 9.9646 7.79492 10.0583 7.8418H10.0349L10.7615 8.24023V13.8184C10.7615 13.8809 10.7458 13.9355 10.7146 13.9824C10.6833 14.0293 10.6443 14.0684 10.5974 14.0996H10.574L9.5896 14.6855C9.57397 14.6855 9.55054 14.6895 9.51929 14.6973C9.48804 14.7051 9.45679 14.709 9.42554 14.709C9.39429 14.709 9.36304 14.7051 9.33179 14.6973C9.30054 14.6895 9.2771 14.6855 9.26147 14.6855L8.25366 14.0996C8.20679 14.0684 8.16772 14.0293 8.13647 13.9824C8.10522 13.9355 8.0896 13.8809 8.0896 13.8184V12.6699C8.0896 12.6074 8.10522 12.5488 8.13647 12.4941C8.16772 12.4395 8.20679 12.4043 8.25366 12.3887L9.26147 11.8027C9.2771 11.7871 9.30054 11.7754 9.33179 11.7676C9.36304 11.7598 9.39429 11.7559 9.42554 11.7559C9.45679 11.7559 9.48804 11.7598 9.51929 11.7676C9.55054 11.7754 9.57397 11.7871 9.5896 11.8027L9.84741 11.9434V10.8887L9.70679 10.8184C9.65991 10.7871 9.61304 10.7676 9.56616 10.7598C9.51929 10.752 9.47241 10.748 9.42554 10.748C9.37866 10.748 9.33179 10.752 9.28491 10.7598C9.23804 10.7676 9.19116 10.7871 9.14429 10.8184L7.45679 11.7793C7.37866 11.8262 7.31226 11.8926 7.25757 11.9785C7.20288 12.0645 7.17554 12.1621 7.17554 12.2715V14.2168C7.17554 14.3105 7.20288 14.4004 7.25757 14.4863C7.31226 14.5723 7.37866 14.6387 7.45679 14.6855L9.14429 15.6699C9.19116 15.6855 9.23804 15.7012 9.28491 15.7168C9.33179 15.7324 9.37866 15.7402 9.42554 15.7402C9.47241 15.7402 9.51929 15.7324 9.56616 15.7168C9.61304 15.7012 9.65991 15.6855 9.70679 15.6699L11.3943 14.6855C11.4724 14.6387 11.5388 14.5723 11.5935 14.4863C11.6482 14.4004 11.6755 14.3105 11.6755 14.2168V7.72461L10.1521 6.85742C10.0583 6.79492 9.94897 6.74414 9.82397 6.70508C9.69897 6.66602 9.56616 6.64648 9.42554 6.64648C9.28491 6.64648 9.1521 6.66602 9.0271 6.70508C8.9021 6.74414 8.79272 6.79492 8.69897 6.85742L4.26929 9.41211C4.05054 9.53711 3.87085 9.71289 3.73022 9.93945C3.5896 10.166 3.51929 10.4121 3.51929 10.6777V15.8105C3.51929 16.0762 3.58569 16.3184 3.71851 16.5371C3.85132 16.7559 4.0271 16.9277 4.24585 17.0527L4.26929 17.0762L8.69897 19.6309C8.80835 19.6934 8.92163 19.7402 9.03882 19.7715C9.15601 19.8027 9.28491 19.8184 9.42554 19.8184C9.56616 19.8184 9.69897 19.8027 9.82397 19.7715C9.94897 19.7402 10.0662 19.6934 10.1755 19.6309H10.1521L14.5818 17.0762C14.8162 16.9355 14.9998 16.7559 15.1326 16.5371C15.2654 16.3184 15.3318 16.0762 15.3318 15.8105V9.85742L14.4177 9.31836Z" fill="#8094AE"/>
</g>
<defs>
<clipPath id="clip0_15_1396">
<rect width="24" height="24" fill="white" transform="matrix(1 0 0 -1 0.542725 24.7402)"/>
</clipPath>
</defs>
</svg>
