<svg width="25" height="25" viewBox="0 0 25 25" fill="none" xmlns="http://www.w3.org/2000/svg">
<g clip-path="url(#clip0_15_1289)">
<path d="M21.5427 14.207H1.5271C1.26147 14.207 1.03101 14.1094 0.835693 13.9141C0.640381 13.7188 0.542725 13.4805 0.542725 13.1992C0.542725 12.9336 0.640381 12.7031 0.835693 12.5078C1.03101 12.3125 1.26147 12.2148 1.5271 12.2148H21.5427C21.8083 12.2148 22.0388 12.3125 22.2341 12.5078C22.4294 12.7031 22.5271 12.9336 22.5271 13.1992C22.5271 13.4805 22.4294 13.7188 22.2341 13.9141C22.0388 14.1094 21.8083 14.207 21.5427 14.207ZM22.5271 6.21484C22.5271 5.93359 22.4294 5.69531 22.2341 5.5C22.0388 5.30469 21.8083 5.20703 21.5427 5.20703H1.5271C1.26147 5.20703 1.03101 5.30469 0.835693 5.5C0.640381 5.69531 0.542725 5.93359 0.542725 6.21484C0.542725 6.48047 0.640381 6.71094 0.835693 6.90625C1.03101 7.10156 1.26147 7.19922 1.5271 7.19922H21.5427C21.8083 7.19922 22.0388 7.10156 22.2341 6.90625C22.4294 6.71094 22.5271 6.48047 22.5271 6.21484ZM22.5271 20.207C22.5271 19.9258 22.4294 19.6875 22.2341 19.4922C22.0388 19.2969 21.8083 19.1992 21.5427 19.1992H1.5271C1.26147 19.1992 1.03101 19.2969 0.835693 19.4922C0.640381 19.6875 0.542725 19.9258 0.542725 20.207C0.542725 20.4883 0.640381 20.7266 0.835693 20.9219C1.03101 21.1172 1.26147 21.2148 1.5271 21.2148H21.5427C21.8083 21.2148 22.0388 21.1172 22.2341 20.9219C22.4294 20.7266 22.5271 20.4883 22.5271 20.207Z" fill="#9FAEC2"/>
</g>
<defs>
<clipPath id="clip0_15_1289">
<rect width="24" height="24" fill="white" transform="matrix(1 0 0 -1 0.542725 24.707)"/>
</clipPath>
</defs>
</svg>
