<svg width="15" height="15" viewBox="0 0 15 15" fill="none" xmlns="http://www.w3.org/2000/svg">
<g clip-path="url(#clip0_15_881)">
<path d="M3.89795 9.85449C3.81592 9.85449 3.74072 9.83854 3.67236 9.80664C3.604 9.77474 3.54248 9.73145 3.48779 9.67676L0.575684 6.76465C0.520996 6.70996 0.47998 6.64844 0.452637 6.58008C0.425293 6.51172 0.411621 6.43652 0.411621 6.35449C0.411621 6.19954 0.468587 6.0651 0.58252 5.95117C0.696452 5.83724 0.830892 5.78027 0.98584 5.78027C1.06787 5.78027 1.14307 5.79395 1.21143 5.82129C1.27979 5.84863 1.34131 5.88965 1.396 5.94434L3.89795 8.44629L6.3999 5.94434C6.45459 5.88965 6.51611 5.84863 6.58447 5.82129C6.65283 5.79395 6.72803 5.78027 6.81006 5.78027C6.96501 5.78027 7.09945 5.83724 7.21338 5.95117C7.32731 6.0651 7.38428 6.19954 7.38428 6.35449C7.38428 6.43652 7.37061 6.51172 7.34326 6.58008C7.31592 6.64844 7.2749 6.70996 7.22021 6.76465L4.30811 9.67676C4.25342 9.73145 4.19189 9.77474 4.12354 9.80664C4.05518 9.83854 3.97998 9.85449 3.89795 9.85449Z" fill="#526484"/>
</g>
<defs>
<clipPath id="clip0_15_881">
<rect width="14.25" height="14" fill="white" transform="matrix(1 0 0 -1 0.406738 14.5166)"/>
</clipPath>
</defs>
</svg>
