<svg width="15" height="15" viewBox="0 0 15 15" fill="none" xmlns="http://www.w3.org/2000/svg">
<g clip-path="url(#clip0_15_634)">
<path d="M6.34058 9.51172C6.28589 9.45703 6.22437 9.41374 6.15601 9.38184C6.08765 9.34993 6.01245 9.33398 5.93042 9.33398C5.84839 9.33398 5.77091 9.34993 5.698 9.38184C5.62508 9.41374 5.56584 9.45703 5.52026 9.51172L4.18042 10.8516V2.92188C4.18042 2.75781 4.12345 2.61882 4.00952 2.50488C3.89559 2.39095 3.75659 2.33398 3.59253 2.33398C3.42847 2.33398 3.28947 2.39095 3.17554 2.50488C3.0616 2.61882 3.00464 2.75781 3.00464 2.92188V10.8516L1.66479 9.51172C1.61922 9.45703 1.55998 9.41374 1.48706 9.38184C1.41414 9.34993 1.33667 9.33398 1.25464 9.33398C1.09058 9.33398 0.951579 9.39095 0.837646 9.50488C0.723714 9.61882 0.666748 9.75326 0.666748 9.9082C0.666748 9.99935 0.682699 10.0791 0.7146 10.1475C0.746501 10.2158 0.789795 10.2773 0.844482 10.332L3.18237 12.6699C3.23706 12.7246 3.29858 12.7656 3.36694 12.793C3.4353 12.8203 3.5105 12.834 3.59253 12.834C3.67456 12.834 3.74976 12.8203 3.81812 12.793C3.88647 12.7656 3.948 12.7246 4.00269 12.6699L6.34058 10.332C6.39526 10.2773 6.43628 10.2158 6.46362 10.1475C6.49097 10.0791 6.50464 10.0039 6.50464 9.92188C6.50464 9.83984 6.49097 9.76465 6.46362 9.69629C6.43628 9.62793 6.39526 9.56641 6.34058 9.51172Z" fill="#E85347"/>
</g>
<defs>
<clipPath id="clip0_15_634">
<rect width="14" height="14" fill="white" transform="matrix(1 0 0 -1 0.666748 14.2969)"/>
</clipPath>
</defs>
</svg>
