<svg width="14" height="14" viewBox="0 0 14 14" fill="none" xmlns="http://www.w3.org/2000/svg">
<g clip-path="url(#clip0_15_960)">
<path d="M5.9666 9.08612C5.91711 9.03663 5.86143 8.99745 5.79957 8.96858C5.7377 8.93971 5.66965 8.92527 5.59541 8.92527C5.52117 8.92527 5.45106 8.93971 5.38507 8.96858C5.31908 8.99745 5.26546 9.03663 5.22422 9.08612L4.01166 10.2987V3.12231C4.01166 2.97384 3.96011 2.84804 3.857 2.74494C3.75389 2.64183 3.6281 2.59027 3.47962 2.59027C3.33114 2.59027 3.20535 2.64183 3.10224 2.74494C2.99913 2.84804 2.94758 2.97384 2.94758 3.12231V10.2987L1.73502 9.08612C1.69378 9.03663 1.64016 8.99745 1.57417 8.96858C1.50818 8.93971 1.43807 8.92527 1.36383 8.92527C1.21535 8.92527 1.08956 8.97683 0.98645 9.07994C0.883341 9.18305 0.831787 9.30471 0.831787 9.44494C0.831787 9.52743 0.846222 9.5996 0.875093 9.66147C0.903963 9.72333 0.943145 9.77901 0.992637 9.82851L3.10843 11.9443C3.15792 11.9938 3.2136 12.0309 3.27546 12.0557C3.33733 12.0804 3.40538 12.0928 3.47962 12.0928C3.55386 12.0928 3.62191 12.0804 3.68377 12.0557C3.74564 12.0309 3.80132 11.9938 3.85081 11.9443L5.9666 9.82851C6.01609 9.77901 6.05321 9.72333 6.07796 9.66147C6.10271 9.5996 6.11508 9.53155 6.11508 9.45731C6.11508 9.38308 6.10271 9.31502 6.07796 9.25316C6.05321 9.19129 6.01609 9.13561 5.9666 9.08612Z" fill="#E85347"/>
</g>
<defs>
<clipPath id="clip0_15_960">
<rect width="13" height="12.67" fill="white" transform="matrix(1 0 0 -1 0.666748 13.417)"/>
</clipPath>
</defs>
</svg>
