<svg width="25" height="25" viewBox="0 0 25 25" fill="none" xmlns="http://www.w3.org/2000/svg">
<g clip-path="url(#clip0_15_1231)">
<path d="M15.0505 22.2471H4.03491C3.08179 22.2471 2.26147 21.9072 1.57397 21.2275C0.886475 20.5479 0.542725 19.7236 0.542725 18.7549V7.7627C0.542725 6.79395 0.886475 5.96582 1.57397 5.27832C2.26147 4.59082 3.08179 4.24707 4.03491 4.24707H15.0505C16.0037 4.24707 16.824 4.59082 17.5115 5.27832C18.199 5.96582 18.5427 6.79395 18.5427 7.7627V18.7549C18.5427 19.7236 18.199 20.5479 17.5115 21.2275C16.824 21.9072 16.0037 22.2471 15.0505 22.2471ZM4.03491 6.2627C3.62866 6.2627 3.2771 6.40723 2.98022 6.69629C2.68335 6.98535 2.53491 7.34082 2.53491 7.7627V18.7549C2.53491 19.1611 2.68335 19.5127 2.98022 19.8096C3.2771 20.1064 3.62866 20.2549 4.03491 20.2549H15.0505C15.4568 20.2549 15.8083 20.1064 16.1052 19.8096C16.4021 19.5127 16.5505 19.1611 16.5505 18.7549V7.7627C16.5505 7.34082 16.4021 6.98535 16.1052 6.69629C15.8083 6.40723 15.4568 6.2627 15.0505 6.2627H4.03491ZM14.5349 9.2627C14.5349 8.98145 14.4373 8.74316 14.2419 8.54785C14.0466 8.35254 13.8162 8.25488 13.5505 8.25488H5.53491C5.26929 8.25488 5.03882 8.35254 4.84351 8.54785C4.64819 8.74316 4.55054 8.98145 4.55054 9.2627C4.55054 9.52832 4.64819 9.75879 4.84351 9.9541C5.03882 10.1494 5.26929 10.2471 5.53491 10.2471H13.5505C13.8162 10.2471 14.0466 10.1494 14.2419 9.9541C14.4373 9.75879 14.5349 9.52832 14.5349 9.2627ZM14.5349 17.2549C14.5349 16.9736 14.4373 16.7354 14.2419 16.54C14.0466 16.3447 13.8162 16.2471 13.5505 16.2471H5.53491C5.26929 16.2471 5.03882 16.3447 4.84351 16.54C4.64819 16.7354 4.55054 16.9736 4.55054 17.2549C4.55054 17.5361 4.64819 17.7744 4.84351 17.9697C5.03882 18.165 5.26929 18.2627 5.53491 18.2627H13.5505C13.8162 18.2627 14.0466 18.165 14.2419 17.9697C14.4373 17.7744 14.5349 17.5361 14.5349 17.2549ZM9.54272 13.2471C9.54272 12.9814 9.44507 12.751 9.24976 12.5557C9.05444 12.3604 8.81616 12.2627 8.53491 12.2627H5.53491C5.26929 12.2627 5.03882 12.3604 4.84351 12.5557C4.64819 12.751 4.55054 12.9814 4.55054 13.2471C4.55054 13.5283 4.64819 13.7666 4.84351 13.9619C5.03882 14.1572 5.26929 14.2549 5.53491 14.2549H8.53491C8.81616 14.2549 9.05444 14.1572 9.24976 13.9619C9.44507 13.7666 9.54272 13.5283 9.54272 13.2471ZM14.5349 13.2471C14.5349 12.9814 14.4373 12.751 14.2419 12.5557C14.0466 12.3604 13.8162 12.2627 13.5505 12.2627H12.5427C12.2615 12.2627 12.0271 12.3604 11.8396 12.5557C11.6521 12.751 11.5583 12.9814 11.5583 13.2471C11.5583 13.5283 11.656 13.7666 11.8513 13.9619C12.0466 14.1572 12.2849 14.2549 12.5662 14.2549H13.5505C13.8162 14.2549 14.0466 14.1572 14.2419 13.9619C14.4373 13.7666 14.5349 13.5283 14.5349 13.2471Z" fill="#6576FF"/>
</g>
<defs>
<clipPath id="clip0_15_1231">
<rect width="24" height="24" fill="white" transform="matrix(1 0 0 -1 0.542725 24.7549)"/>
</clipPath>
</defs>
</svg>
