<svg width="25" height="25" viewBox="0 0 25 25" fill="none" xmlns="http://www.w3.org/2000/svg">
<g clip-path="url(#clip0_15_1304)">
<path d="M20.5583 5.04004V12.0479C20.5583 12.5947 20.363 13.0635 19.9724 13.4541C19.5818 13.8447 19.1052 14.04 18.5427 14.04H13.5505C13.0037 14.04 12.5349 13.8447 12.1443 13.4541C11.7537 13.0635 11.5583 12.5947 11.5583 12.0479V5.04004C11.5583 4.49316 11.7537 4.02441 12.1443 3.63379C12.5349 3.24316 13.0037 3.04785 13.5505 3.04785H18.5427C19.1052 3.04785 19.5818 3.24316 19.9724 3.63379C20.363 4.02441 20.5583 4.49316 20.5583 5.04004ZM7.55054 3.04785H2.55835C1.99585 3.04785 1.51929 3.24316 1.12866 3.63379C0.738037 4.02441 0.542725 4.49316 0.542725 5.04004V9.04785C0.542725 9.59473 0.738037 10.0635 1.12866 10.4541C1.51929 10.8447 1.99585 11.04 2.55835 11.04H7.55054C8.09741 11.04 8.56616 10.8447 8.95679 10.4541C9.34741 10.0635 9.54272 9.59473 9.54272 9.04785V5.04004C9.54272 4.49316 9.34741 4.02441 8.95679 3.63379C8.56616 3.24316 8.09741 3.04785 7.55054 3.04785ZM18.5427 16.0322H13.5505C13.0037 16.0322 12.5349 16.2275 12.1443 16.6182C11.7537 17.0088 11.5583 17.4854 11.5583 18.0479V21.0479C11.5583 21.5947 11.7537 22.0635 12.1443 22.4541C12.5349 22.8447 13.0037 23.04 13.5505 23.04H18.5427C19.1052 23.04 19.5818 22.8447 19.9724 22.4541C20.363 22.0635 20.5583 21.5947 20.5583 21.0479V18.0479C20.5583 17.4854 20.363 17.0088 19.9724 16.6182C19.5818 16.2275 19.1052 16.0322 18.5427 16.0322ZM7.55054 13.0322H2.55835C1.99585 13.0322 1.51929 13.2275 1.12866 13.6182C0.738037 14.0088 0.542725 14.4854 0.542725 15.0479V21.0479C0.542725 21.5947 0.738037 22.0635 1.12866 22.4541C1.51929 22.8447 1.99585 23.04 2.55835 23.04H7.55054C8.09741 23.04 8.56616 22.8447 8.95679 22.4541C9.34741 22.0635 9.54272 21.5947 9.54272 21.0479V15.0479C9.54272 14.4854 9.34741 14.0088 8.95679 13.6182C8.56616 13.2275 8.09741 13.0322 7.55054 13.0322Z" fill="#7F8DFF"/>
</g>
<defs>
<clipPath id="clip0_15_1304">
<rect width="24" height="24" fill="white" transform="matrix(1 0 0 -1 0.542725 24.54)"/>
</clipPath>
</defs>
</svg>
