<svg width="25" height="25" viewBox="0 0 25 25" fill="none" xmlns="http://www.w3.org/2000/svg">
<g clip-path="url(#clip0_15_1405)">
<path d="M20.5583 8.73242C20.5583 8.93555 20.5076 9.11523 20.406 9.27148C20.3044 9.42773 20.1677 9.54492 19.9958 9.62305L10.9958 14.123C10.9333 14.1699 10.863 14.2012 10.7849 14.2168C10.7068 14.2324 10.6287 14.2402 10.5505 14.2402C10.4724 14.2402 10.3943 14.2324 10.3162 14.2168C10.238 14.2012 10.1677 14.1699 10.1052 14.123L1.10522 9.62305C0.93335 9.54492 0.796631 9.42773 0.695068 9.27148C0.593506 9.11523 0.542725 8.93555 0.542725 8.73242C0.542725 8.54492 0.593506 8.37305 0.695068 8.2168C0.796631 8.06055 0.93335 7.93555 1.10522 7.8418L10.1052 3.3418C10.1677 3.31055 10.238 3.28711 10.3162 3.27148C10.3943 3.25586 10.4724 3.24805 10.5505 3.24805C10.6287 3.24805 10.7068 3.25586 10.7849 3.27148C10.863 3.28711 10.9333 3.31055 10.9958 3.3418L19.9958 7.8418C20.1677 7.93555 20.3044 8.06055 20.406 8.2168C20.5076 8.37305 20.5583 8.54492 20.5583 8.73242ZM10.9958 23.123L19.9958 18.623C20.1677 18.5449 20.3044 18.4277 20.406 18.2715C20.5076 18.1152 20.5583 17.9355 20.5583 17.7324C20.5583 17.4668 20.4607 17.2363 20.2654 17.041C20.0701 16.8457 19.8318 16.748 19.5505 16.748C19.4724 16.748 19.3943 16.7559 19.3162 16.7715C19.238 16.7871 19.1677 16.8105 19.1052 16.8418L10.5505 21.1309L1.99585 16.8418C1.93335 16.8105 1.86304 16.7871 1.78491 16.7715C1.70679 16.7559 1.62866 16.748 1.55054 16.748C1.26929 16.748 1.03101 16.8457 0.835693 17.041C0.640381 17.2363 0.542725 17.4668 0.542725 17.7324C0.542725 17.9355 0.593506 18.1152 0.695068 18.2715C0.796631 18.4277 0.93335 18.5449 1.10522 18.623L10.1052 23.123C10.1677 23.1699 10.238 23.2012 10.3162 23.2168C10.3943 23.2324 10.4724 23.2402 10.5505 23.2402C10.6287 23.2402 10.7068 23.2324 10.7849 23.2168C10.863 23.2012 10.9333 23.1699 10.9958 23.123ZM10.9958 18.623L19.9958 14.123C20.1677 14.0449 20.3044 13.9277 20.406 13.7715C20.5076 13.6152 20.5583 13.4355 20.5583 13.2324C20.5583 12.9668 20.4607 12.7363 20.2654 12.541C20.0701 12.3457 19.8318 12.248 19.5505 12.248C19.4724 12.248 19.3943 12.2559 19.3162 12.2715C19.238 12.2871 19.1677 12.3105 19.1052 12.3418L10.5505 16.6309L1.99585 12.3418C1.93335 12.3105 1.86304 12.2871 1.78491 12.2715C1.70679 12.2559 1.62866 12.248 1.55054 12.248C1.26929 12.248 1.03101 12.3457 0.835693 12.541C0.640381 12.7363 0.542725 12.9668 0.542725 13.2324C0.542725 13.4355 0.593506 13.6152 0.695068 13.7715C0.796631 13.9277 0.93335 14.0449 1.10522 14.123L10.1052 18.623C10.1677 18.6699 10.238 18.7012 10.3162 18.7168C10.3943 18.7324 10.4724 18.7402 10.5505 18.7402C10.6287 18.7402 10.7068 18.7324 10.7849 18.7168C10.863 18.7012 10.9333 18.6699 10.9958 18.623Z" fill="#8094AE"/>
</g>
<defs>
<clipPath id="clip0_15_1405">
<rect width="24" height="24" fill="white" transform="matrix(1 0 0 -1 0.542725 24.7402)"/>
</clipPath>
</defs>
</svg>
