<svg width="17" height="18" viewBox="0 0 17 18" fill="none" xmlns="http://www.w3.org/2000/svg">
<g clip-path="url(#clip0_15_1184)">
<path d="M7.1502 2.22588C6.18197 2.22588 5.26875 2.40742 4.41055 2.77051C3.55234 3.1446 2.80417 3.65072 2.16602 4.28887C1.52786 4.92702 1.02725 5.66969 0.66416 6.51689C0.290072 7.3751 0.103027 8.28831 0.103027 9.25654C0.103027 10.2358 0.290072 11.149 0.66416 11.9962C1.02725 12.8544 1.52786 13.6026 2.16602 14.2407C2.80417 14.8789 3.55234 15.3795 4.41055 15.7426C5.26875 16.1167 6.18197 16.3037 7.1502 16.3037C8.11842 16.3037 9.03164 16.1167 9.88984 15.7426C10.748 15.3795 11.4962 14.8789 12.1344 14.2407C12.7725 13.6026 13.2731 12.8544 13.6362 11.9962C14.0103 11.149 14.1974 10.2358 14.1974 9.25654C14.1974 8.28831 14.0103 7.3751 13.6362 6.51689C13.2621 5.66969 12.7588 4.92702 12.1261 4.28887C11.4935 3.65072 10.748 3.1446 9.88984 2.77051C9.03164 2.40742 8.11842 2.22588 7.1502 2.22588ZM12.7285 8.56338H10.3354C10.2584 7.68317 10.0824 6.84422 9.80732 6.04653C9.53226 5.24884 9.16917 4.50892 8.71807 3.82676L8.75107 3.85977C9.2792 4.0248 9.76881 4.25586 10.2199 4.55293C10.682 4.85 11.0864 5.20208 11.433 5.60918C11.7795 6.01628 12.0629 6.46738 12.2829 6.9625C12.514 7.45762 12.6625 7.98024 12.7285 8.53037V8.56338ZM5.36777 9.96621H8.93262C8.8446 10.8354 8.64655 11.6524 8.33848 12.417C8.0304 13.1817 7.62881 13.8831 7.13369 14.5213L7.1502 14.5048C6.66608 13.8776 6.26999 13.1817 5.96191 12.417C5.65384 11.6524 5.45579 10.8464 5.36777 9.99922V9.96621ZM5.36777 8.56338C5.45579 7.69417 5.65384 6.87723 5.96191 6.11255C6.26999 5.34787 6.67158 4.64645 7.1667 4.0083L7.1502 4.0248C7.63431 4.65195 8.0304 5.34787 8.33848 6.11255C8.64655 6.87723 8.8446 7.67767 8.93262 8.51387V8.56338H5.36777ZM5.54932 3.85977C5.12021 4.53092 4.76813 5.25985 4.49307 6.04653C4.218 6.83322 4.04196 7.65566 3.96494 8.51387V8.56338H1.57187C1.63789 8.00225 1.78643 7.47412 2.01748 6.979C2.23753 6.47288 2.52085 6.01628 2.86743 5.60918C3.21401 5.20208 3.61286 4.85 4.06396 4.55293C4.50407 4.25586 4.98818 4.03031 5.51631 3.87627L5.54932 3.85977ZM1.57187 9.96621H3.96494C4.04196 10.8464 4.218 11.6826 4.49307 12.4748C4.76813 13.267 5.13122 14.0097 5.58232 14.7028L5.54932 14.6533C5.02119 14.4993 4.53158 14.2737 4.08047 13.9767C3.61836 13.6686 3.21401 13.3138 2.86743 12.9122C2.52085 12.5106 2.23753 12.0622 2.01748 11.5671C1.78643 11.072 1.63789 10.5493 1.57187 9.99922V9.96621ZM8.75107 14.6533C9.18018 13.9932 9.53226 13.2697 9.80732 12.4831C10.0824 11.6964 10.2584 10.8684 10.3354 9.99922V9.96621H12.7285C12.6625 10.5273 12.514 11.0555 12.2829 11.5506C12.0629 12.0457 11.7795 12.4968 11.433 12.9039C11.0864 13.311 10.6875 13.6631 10.2364 13.9602C9.79632 14.2572 9.31221 14.4883 8.78408 14.6533H8.75107Z" fill="#798BFF"/>
</g>
<defs>
<clipPath id="clip0_15_1184">
<rect width="16.9" height="17.33" fill="white" transform="matrix(1 0 0 -1 0.103027 17.5752)"/>
</clipPath>
</defs>
</svg>
