<svg width="19" height="20" viewBox="0 0 19 20" fill="none" xmlns="http://www.w3.org/2000/svg">
<g clip-path="url(#clip0_18_557)">
<path d="M15.4164 16.6713L12.6234 13.8784C13.086 13.2973 13.4506 12.642 13.7175 11.9127C13.9843 11.1833 14.1177 10.4154 14.1177 9.60893C14.1177 8.66017 13.9398 7.7707 13.5841 6.94053C13.2283 6.11036 12.7391 5.38396 12.1164 4.76133C11.4938 4.1387 10.7674 3.64949 9.93724 3.2937C9.10707 2.93792 8.2176 2.76002 7.26883 2.76002C6.33192 2.76002 5.44838 2.93792 4.61821 3.2937C3.77618 3.64949 3.04682 4.1387 2.43012 4.76133C1.81342 5.38396 1.32718 6.11036 0.971392 6.94053C0.603745 7.7707 0.419922 8.66017 0.419922 9.60893C0.419922 10.5458 0.603745 11.4353 0.971392 12.2773C1.32718 13.1075 1.81342 13.8309 2.43012 14.4476C3.04682 15.0643 3.77618 15.5506 4.61821 15.9064C5.44838 16.274 6.33192 16.4578 7.26883 16.4578C8.08714 16.4578 8.86098 16.3244 9.59034 16.0576C10.3197 15.7907 10.9749 15.4201 11.5561 14.9457L14.349 17.7387C14.4202 17.8098 14.5002 17.8632 14.5892 17.8988C14.6781 17.9344 14.77 17.9521 14.8649 17.9521C15.0784 17.9521 15.2592 17.878 15.4075 17.7298C15.5557 17.5815 15.6298 17.4066 15.6298 17.205C15.6298 17.0983 15.612 17.0004 15.5765 16.9115C15.5409 16.8225 15.4875 16.7425 15.4164 16.6713ZM1.98539 9.62672C1.98539 9.62672 1.98539 9.62376 1.98539 9.61783C1.98539 9.6119 1.98539 9.60893 1.98539 9.60893C1.98539 8.8855 2.12177 8.19764 2.39454 7.54537C2.67917 6.90495 3.06164 6.34458 3.54196 5.86427C4.02227 5.38396 4.58264 5.00148 5.22305 4.71685C5.86347 4.44408 6.55133 4.3077 7.28662 4.3077C8.02191 4.3077 8.7157 4.44408 9.36798 4.71685C10.0084 5.00148 10.5688 5.38396 11.0491 5.86427C11.5294 6.34458 11.9119 6.90495 12.1965 7.54537C12.4693 8.19764 12.6056 8.8855 12.6056 9.60893C12.6056 10.3442 12.4663 11.0321 12.1876 11.6725C11.9089 12.3129 11.5324 12.8762 11.058 13.3625C11.058 13.3625 11.055 13.3625 11.0491 13.3625C11.0431 13.3625 11.0402 13.3684 11.0402 13.3803C11.0402 13.3803 11.0402 13.3862 11.0402 13.3981C10.5539 13.8725 9.9906 14.246 9.35019 14.5188C8.70977 14.7916 8.02191 14.928 7.28662 14.928C6.55133 14.928 5.86347 14.7916 5.22305 14.5188C4.58264 14.2342 4.02227 13.8517 3.54196 13.3714C3.06164 12.8911 2.67917 12.3307 2.39454 11.6903C2.12177 11.0499 1.98539 10.362 1.98539 9.62672Z" fill="#526484"/>
</g>
<defs>
<clipPath id="clip0_18_557">
<rect width="18.47" height="18.67" fill="white" transform="matrix(1 0 0 -1 0.419922 19.335)"/>
</clipPath>
</defs>
</svg>
