<svg width="19" height="20" viewBox="0 0 19 20" fill="none" xmlns="http://www.w3.org/2000/svg">
<g clip-path="url(#clip0_18_578)">
<path d="M8.39748 17.9746H6.95654C6.61261 17.9746 6.31612 17.8501 6.06707 17.601C5.81802 17.352 5.6935 17.0496 5.6935 16.6938V15.8755C5.68164 15.828 5.66088 15.7836 5.63123 15.742C5.60158 15.7005 5.56897 15.6679 5.53339 15.6442H5.5156C5.50374 15.6323 5.48299 15.6234 5.45334 15.6175C5.42369 15.6116 5.39701 15.6086 5.37329 15.6086C5.33771 15.6086 5.30806 15.6116 5.28434 15.6175C5.26062 15.6234 5.2369 15.6323 5.21318 15.6442L4.64392 16.2668C4.53719 16.3736 4.40673 16.4625 4.25256 16.5337C4.09838 16.6048 3.93235 16.6404 3.75445 16.6404C3.57656 16.6404 3.41053 16.6078 3.25635 16.5426C3.10218 16.4773 2.97172 16.3854 2.86499 16.2668H2.8472L1.81541 15.235C1.69682 15.1283 1.60194 14.9979 1.53078 14.8437C1.45963 14.6895 1.42405 14.5235 1.42405 14.3456C1.42405 14.1677 1.45963 13.9987 1.53078 13.8386C1.60194 13.6785 1.69682 13.5391 1.81541 13.4205L2.36688 12.8513C2.37874 12.8394 2.3906 12.8216 2.40246 12.7979C2.41432 12.7742 2.42025 12.7505 2.42025 12.7267C2.42025 12.6912 2.41432 12.6615 2.40246 12.6378C2.3906 12.6141 2.37874 12.5963 2.36688 12.5844C2.34316 12.5251 2.31352 12.4777 2.27794 12.4421C2.24236 12.4065 2.20085 12.3887 2.15341 12.3887H1.37068C1.01489 12.3769 0.712472 12.2464 0.463421 11.9974C0.214369 11.7483 0.0898438 11.4459 0.0898438 11.0901V9.66697C0.0898438 9.31118 0.214369 9.00877 0.463421 8.75971C0.712472 8.51066 1.01489 8.38614 1.37068 8.38614H2.20678C2.25422 8.38614 2.29573 8.37131 2.3313 8.34166C2.36688 8.31201 2.39653 8.27347 2.42025 8.22603C2.43211 8.20231 2.44101 8.17563 2.44694 8.14598C2.45287 8.11633 2.45583 8.08965 2.45583 8.06593C2.45583 8.04221 2.45287 8.01553 2.44694 7.98588C2.44101 7.95623 2.43211 7.92954 2.42025 7.90582L1.81541 7.35435C1.69682 7.23576 1.60491 7.09937 1.53968 6.9452C1.47445 6.79102 1.44184 6.62499 1.44184 6.4471C1.44184 6.2692 1.47445 6.10613 1.53968 5.95789C1.60491 5.80964 1.69089 5.67622 1.79762 5.55763H1.81541L2.82941 4.50805C2.948 4.38946 3.08142 4.29755 3.22967 4.23232C3.37791 4.16709 3.54098 4.13448 3.71888 4.13448C3.71888 4.13448 3.72184 4.13448 3.72777 4.13448C3.7337 4.13448 3.73667 4.13448 3.73667 4.13448C3.91456 4.13448 4.08059 4.16709 4.23477 4.23232C4.38894 4.29755 4.52533 4.38946 4.64392 4.50805L5.21318 5.07731C5.2369 5.08917 5.26062 5.09807 5.28434 5.104C5.30806 5.10993 5.33178 5.11289 5.3555 5.11289C5.37922 5.11289 5.40294 5.10993 5.42666 5.104C5.45037 5.09807 5.47409 5.08917 5.49781 5.07731C5.54525 5.05359 5.58972 5.02098 5.63123 4.97947C5.67274 4.93796 5.6935 4.89349 5.6935 4.84605V4.06332C5.6935 3.71939 5.81802 3.4229 6.06707 3.17385C6.31612 2.9248 6.61854 2.80027 6.97433 2.80027H8.45085C8.79478 2.80027 9.09127 2.9248 9.34032 3.17385C9.58937 3.4229 9.71389 3.71939 9.71389 4.06332V4.89942C9.72575 4.94686 9.74651 4.99133 9.77616 5.03284C9.80581 5.07435 9.84435 5.10103 9.89179 5.11289C9.91551 5.12475 9.93923 5.13661 9.96295 5.14847C9.98667 5.16033 10.0104 5.16626 10.0341 5.16626C10.0697 5.16626 10.0993 5.16033 10.1231 5.14847C10.1468 5.13661 10.1705 5.12475 10.1942 5.11289L10.7279 4.50805C10.8346 4.38946 10.9651 4.29755 11.1193 4.23232C11.2734 4.16709 11.4395 4.13448 11.6174 4.13448C11.7953 4.13448 11.9613 4.16709 12.1155 4.23232C12.2696 4.29755 12.4001 4.38946 12.5068 4.50805H12.5246L13.5564 5.52205C13.675 5.64064 13.7699 5.77703 13.841 5.9312C13.9122 6.08538 13.9478 6.25141 13.9478 6.42931C13.9478 6.42931 13.9478 6.43227 13.9478 6.4382C13.9478 6.44413 13.9478 6.45303 13.9478 6.46488C13.9478 6.63092 13.9122 6.79102 13.841 6.9452C13.7699 7.09937 13.675 7.23576 13.5564 7.35435L13.0049 7.90582C12.9931 7.92954 12.9812 7.95326 12.9693 7.97698C12.9575 8.0007 12.9516 8.02442 12.9516 8.04814C12.9516 8.07186 12.9575 8.09558 12.9693 8.1193C12.9812 8.14302 12.9931 8.16673 13.0049 8.19045C13.0286 8.24975 13.0583 8.29719 13.0939 8.33277C13.1295 8.36835 13.171 8.38614 13.2184 8.38614H14.0545C14.3984 8.40986 14.689 8.54328 14.9262 8.7864C15.1634 9.02952 15.282 9.32304 15.282 9.66697V11.1435C15.282 11.4993 15.1574 11.8017 14.9084 12.0507C14.6593 12.2998 14.3569 12.4243 14.0011 12.4243H13.165C13.0939 12.4362 13.0346 12.4718 12.9871 12.5311C12.9397 12.5904 12.916 12.6556 12.916 12.7267C12.916 12.7505 12.9189 12.7742 12.9249 12.7979C12.9308 12.8216 12.9397 12.8453 12.9516 12.8691L13.5386 13.4561C13.6572 13.5628 13.7491 13.6933 13.8143 13.8475C13.8796 14.0016 13.9122 14.1677 13.9122 14.3456C13.9122 14.5235 13.8796 14.6895 13.8143 14.8437C13.7491 14.9979 13.6572 15.1283 13.5386 15.235V15.2528L12.5424 16.2668C12.4238 16.3736 12.2904 16.4625 12.1421 16.5337C11.9939 16.6048 11.8308 16.6404 11.6529 16.6404C11.475 16.6404 11.309 16.6048 11.1548 16.5337C11.0007 16.4625 10.8643 16.3736 10.7457 16.2668L10.1586 15.6976C10.1349 15.6857 10.1112 15.6768 10.0875 15.6709C10.0638 15.665 10.04 15.662 10.0163 15.662C9.99259 15.662 9.96888 15.665 9.94516 15.6709C9.92144 15.6768 9.89772 15.6857 9.874 15.6976C9.82656 15.7213 9.78209 15.7509 9.74058 15.7865C9.69907 15.8221 9.67832 15.8695 9.67832 15.9288V16.7471C9.66646 17.0911 9.536 17.3816 9.28695 17.6188C9.0379 17.856 8.74141 17.9746 8.39748 17.9746ZM7.20559 16.4625H8.16622V15.8755C8.16622 15.5078 8.26999 15.1787 8.47753 14.8882C8.68508 14.5976 8.94895 14.3871 9.26916 14.2566C9.3759 14.2092 9.49153 14.1706 9.61605 14.141C9.74058 14.1114 9.86807 14.0965 9.99852 14.0965C10.2357 14.0965 10.461 14.141 10.6745 14.2299C10.888 14.3189 11.0777 14.4464 11.2438 14.6124L11.6529 15.0216L12.3111 14.3456L11.902 13.9364C11.7478 13.7704 11.6263 13.5806 11.5373 13.3672C11.4484 13.1537 11.4039 12.9224 11.4039 12.6734C11.4039 12.1871 11.5758 11.7691 11.9198 11.4192C12.2637 11.0694 12.6788 10.8885 13.165 10.8766H13.7521V9.89823H13.165C12.8092 9.89823 12.4831 9.79743 12.1866 9.59581C11.8901 9.3942 11.6767 9.13329 11.5462 8.81308V8.79529C11.4988 8.68856 11.4632 8.57589 11.4395 8.45729C11.4157 8.3387 11.4039 8.21417 11.4039 8.08372C11.4039 7.83467 11.4484 7.6034 11.5373 7.38993C11.6263 7.17646 11.7478 6.99264 11.902 6.83846L12.3111 6.42931L11.6529 5.75331L11.226 6.16247C11.0718 6.31664 10.888 6.43524 10.6745 6.51825C10.461 6.60127 10.2357 6.64278 9.99852 6.64278C9.51228 6.64278 9.09423 6.47378 8.74437 6.13578C8.39452 5.79778 8.21366 5.38566 8.2018 4.89942V4.31237H7.20559V4.89942C7.20559 5.26707 7.10182 5.59617 6.89428 5.88673C6.68674 6.17729 6.42286 6.3878 6.10265 6.51825C5.99592 6.56569 5.88028 6.60424 5.75576 6.63388C5.63123 6.66353 5.50374 6.67836 5.37329 6.67836C5.1361 6.67836 4.91076 6.63092 4.69729 6.53604C4.48382 6.44117 4.29407 6.31664 4.12803 6.16247L3.71888 5.75331L3.06067 6.42931L3.46982 6.83846C3.61214 7.0045 3.72481 7.19128 3.80782 7.39883C3.89084 7.60637 3.93235 7.82874 3.93235 8.06593C3.93235 8.55217 3.76335 8.97022 3.42535 9.32008C3.08735 9.66994 2.68116 9.85673 2.20678 9.88044H1.61973V10.8411H2.20678C2.56257 10.8411 2.88871 10.9419 3.18519 11.1435C3.48168 11.3451 3.69516 11.606 3.82561 11.9262V11.944C3.87305 12.0507 3.90863 12.1634 3.93235 12.282C3.95607 12.4006 3.96793 12.5251 3.96793 12.6556C3.96793 12.9046 3.92345 13.1359 3.83451 13.3494C3.74556 13.5628 3.624 13.7467 3.46982 13.9008L3.06067 14.31L3.71888 14.986L4.14582 14.5768C4.3 14.4227 4.48382 14.3041 4.69729 14.2211C4.91076 14.138 5.1361 14.0965 5.37329 14.0965C5.85953 14.0965 6.27758 14.2655 6.62744 14.6035C6.9773 14.9415 7.15815 15.3536 7.17001 15.8399L7.20559 16.4625ZM7.68591 13.047C6.95061 13.047 6.32502 12.786 5.80913 12.2642C5.29324 11.7424 5.03529 11.1138 5.03529 10.3785C5.03529 9.64325 5.29324 9.01766 5.80913 8.50177C6.32502 7.98588 6.95061 7.72793 7.68591 7.72793C8.4212 7.72793 9.04679 7.98588 9.56268 8.50177C10.0786 9.01766 10.3365 9.64325 10.3365 10.3785C10.3365 11.1138 10.0786 11.7424 9.56268 12.2642C9.04679 12.786 8.4212 13.047 7.68591 13.047ZM7.68591 9.24003C7.3657 9.24003 7.09589 9.35269 6.87649 9.57803C6.65709 9.80336 6.54739 10.0702 6.54739 10.3785C6.54739 10.6988 6.65709 10.9686 6.87649 11.188C7.09589 11.4074 7.3657 11.5171 7.68591 11.5171C8.00611 11.5171 8.27592 11.4074 8.49532 11.188C8.71472 10.9686 8.82443 10.6988 8.82443 10.3785C8.82443 10.0702 8.71472 9.80336 8.49532 9.57803C8.27592 9.35269 8.00611 9.24003 7.68591 9.24003Z" fill="#526484"/>
</g>
<defs>
<clipPath id="clip0_18_578">
<rect width="18.47" height="18.67" fill="white" transform="matrix(1 0 0 -1 0.0898438 19.3398)"/>
</clipPath>
</defs>
</svg>
